<?xml version="1.0" encoding="UTF-8" standalone="no"?>
<!DOCTYPE svg PUBLIC "-//W3C//DTD SVG 1.1//EN" "http://www.w3.org/Graphics/SVG/1.1/DTD/svg11.dtd">
<svg xmlns="http://www.w3.org/2000/svg" version="1.1" viewBox="0.00 0.00 512.00 512.00">
<path fill="#ffffff" d="
  M 251.88 0.00
  L 257.49 0.00
  Q 280.16 1.17 297.53 13.43
  Q 322.50 31.07 328.90 62.24
  Q 328.99 62.70 329.46 62.70
  Q 375.47 62.87 417.49 62.65
  Q 430.11 62.59 436.44 63.77
  Q 457.44 67.68 470.29 84.38
  C 475.94 91.73 479.32 101.29 479.80 110.65
  Q 481.05 134.89 464.06 151.66
  Q 449.13 166.39 425.67 166.39
  Q 255.89 166.37 83.93 166.38
  Q 67.82 166.38 54.57 158.28
  Q 41.16 150.08 34.83 135.50
  Q 30.93 126.52 30.81 115.95
  Q 30.58 95.18 44.36 79.77
  Q 46.51 77.37 48.84 75.52
  C 51.00 73.80 53.00 71.96 55.37 70.53
  Q 68.16 62.80 83.16 62.78
  Q 130.96 62.71 179.93 62.76
  Q 180.46 62.76 180.56 62.24
  Q 184.51 42.27 196.62 27.63
  Q 217.73 2.09 251.88 0.00
  Z
  M 248.18 26.11
  C 228.07 28.90 212.21 42.88 206.35 62.18
  Q 206.18 62.75 206.76 62.75
  L 301.53 62.75
  A 0.44 0.44 0.0 0 0 301.95 62.20
  Q 297.72 46.62 286.09 36.90
  C 275.60 28.13 261.46 24.27 248.18 26.11
  Z
  M 63.63 95.73
  C 47.36 113.55 60.29 140.88 84.04 140.86
  Q 259.35 140.74 421.22 140.89
  Q 429.50 140.90 433.47 139.89
  C 442.86 137.50 449.95 130.27 453.00 120.89
  C 458.75 103.16 444.05 87.01 426.75 87.01
  Q 257.11 87.00 84.00 87.06
  Q 71.54 87.07 63.63 95.73
  Z"
/>
<path fill="#ffffff" d="
  M 360.62 512.00
  L 148.51 512.00
  Q 125.50 510.87 108.32 498.70
  Q 75.48 475.44 75.50 432.63
  Q 75.54 316.05 75.53 206.50
  C 75.53 200.88 77.17 195.17 82.95 193.12
  Q 87.96 191.35 93.08 192.90
  C 99.85 194.95 101.12 201.29 101.12 207.60
  Q 101.12 322.60 101.13 437.26
  C 101.14 449.57 106.47 461.94 114.93 470.73
  Q 125.69 481.90 140.92 485.26
  Q 146.71 486.54 158.41 486.53
  Q 259.22 486.43 356.93 486.46
  C 371.25 486.47 383.88 481.45 393.65 471.61
  Q 403.57 461.62 407.00 447.41
  Q 408.34 441.85 408.33 432.17
  Q 408.23 318.78 408.32 206.72
  C 408.33 200.72 410.06 194.76 416.42 192.89
  Q 421.26 191.46 425.88 192.91
  C 432.29 194.92 433.88 200.64 433.88 206.72
  Q 433.87 323.21 433.86 436.28
  C 433.86 463.59 418.62 488.34 395.41 501.91
  Q 379.76 511.06 360.62 512.00
  Z"
/>
<path fill="#ffffff" d="
  M 158.65 447.64
  C 153.52 445.25 152.33 439.74 152.33 434.54
  Q 152.21 331.69 152.31 225.03
  C 152.32 218.99 153.79 212.83 160.28 210.85
  C 166.98 208.80 176.16 211.05 177.30 219.27
  C 177.52 220.82 177.87 222.24 177.87 223.79
  Q 177.87 326.51 177.87 436.47
  C 177.87 441.33 173.90 445.99 169.78 448.04
  Q 164.81 450.52 158.65 447.64
  Z"
/>
<path fill="#ffffff" d="
  M 248.83 211.26
  Q 253.81 209.19 259.30 210.78
  C 265.60 212.60 267.52 218.34 267.51 224.31
  Q 267.41 330.88 267.51 436.38
  C 267.52 441.27 263.59 445.85 259.47 448.03
  Q 255.49 450.12 250.06 448.40
  C 243.37 446.27 241.95 440.51 241.95 434.28
  Q 241.98 331.30 241.97 224.27
  C 241.96 218.88 243.39 213.52 248.83 211.26
  Z"
/>
<path fill="#ffffff" d="
  M 357.13 435.58
  C 357.13 441.14 353.66 445.71 348.84 448.15
  Q 345.19 449.99 339.78 448.44
  Q 335.49 447.21 333.27 443.31
  C 332.13 441.32 331.53 437.62 331.53 435.33
  Q 331.51 330.35 331.54 224.45
  C 331.54 218.15 333.45 212.37 340.24 210.63
  C 346.66 209.00 354.32 211.16 356.27 218.00
  C 356.77 219.76 357.12 222.74 357.12 225.01
  Q 357.15 330.00 357.13 435.58
  Z"
/>
</svg>
