<?xml version="1.0" encoding="UTF-8" standalone="no"?>
<!DOCTYPE svg PUBLIC "-//W3C//DTD SVG 1.1//EN" "http://www.w3.org/Graphics/SVG/1.1/DTD/svg11.dtd">
<svg xmlns="http://www.w3.org/2000/svg" version="1.1" viewBox="0.00 0.00 512.00 512.00">
<path fill="#ffffff" d="
  M 0.00 79.78
  L 0.00 48.07
  L 90.18 48.00
  A 0.41 0.40 77.5 0 1 90.55 48.24
  L 202.32 303.72
  Q 202.44 304.00 202.75 304.00
  L 447.25 304.00
  A 0.75 0.75 0.0 0 1 448.00 304.75
  L 448.00 335.50
  A 0.50 0.50 0.0 0 1 447.50 336.00
  L 182.32 336.00
  A 1.16 1.15 -11.6 0 1 181.26 335.31
  L 69.71 80.33
  A 0.56 0.56 0.0 0 0 69.20 80.00
  L 0.00 79.78
  Z"
/>
<path fill="#ffffff" d="
  M 512.00 112.01
  Q 511.98 112.15 512.00 112.29
  L 448.07 271.76
  Q 447.97 272.00 447.71 272.00
  L 224.54 272.00
  Q 224.03 272.00 223.84 271.52
  L 160.18 112.38
  Q 160.03 112.00 160.44 112.00
  L 512.00 112.01
  Z
  M 207.72 144.00
  A 0.31 0.31 0.0 0 0 207.43 144.43
  L 245.59 239.82
  A 0.31 0.31 0.0 0 0 245.88 240.01
  L 426.19 239.99
  A 0.31 0.31 0.0 0 0 426.48 239.80
  L 464.61 144.43
  A 0.31 0.31 0.0 0 0 464.32 144.00
  L 207.72 144.00
  Z"
/>
<path fill="#ffffff" d="
  M 287.83 416.00
  A 47.83 47.83 0.0 0 1 240.00 463.83
  A 47.83 47.83 0.0 0 1 192.17 416.00
  A 47.83 47.83 0.0 0 1 240.00 368.17
  A 47.83 47.83 0.0 0 1 287.83 416.00
  Z
  M 255.98 416.00
  A 15.97 15.97 0.0 0 0 240.01 400.03
  A 15.97 15.97 0.0 0 0 224.04 416.00
  A 15.97 15.97 0.0 0 0 240.01 431.97
  A 15.97 15.97 0.0 0 0 255.98 416.00
  Z"
/>
<path fill="#ffffff" d="
  M 447.83 416.00
  A 47.83 47.83 0.0 0 1 400.00 463.83
  A 47.83 47.83 0.0 0 1 352.17 416.00
  A 47.83 47.83 0.0 0 1 400.00 368.17
  A 47.83 47.83 0.0 0 1 447.83 416.00
  Z
  M 415.97 416.00
  A 15.97 15.97 0.0 0 0 400.00 400.03
  A 15.97 15.97 0.0 0 0 384.03 416.00
  A 15.97 15.97 0.0 0 0 400.00 431.97
  A 15.97 15.97 0.0 0 0 415.97 416.00
  Z"
/>
</svg>
