<?xml version="1.0" encoding="UTF-8" standalone="no"?>
<!DOCTYPE svg PUBLIC "-//W3C//DTD SVG 1.1//EN" "http://www.w3.org/Graphics/SVG/1.1/DTD/svg11.dtd">
<svg xmlns="http://www.w3.org/2000/svg" version="1.1" viewBox="0.00 0.00 512.00 512.00">
<path fill="#ffffff" d="
  M 463.96 255.99
  A 207.96 207.96 0.0 0 1 256.00 463.95
  A 207.96 207.96 0.0 0 1 48.04 255.99
  A 207.96 207.96 0.0 0 1 256.00 48.03
  A 207.96 207.96 0.0 0 1 463.96 255.99
  Z
  M 432.01 255.99
  A 176.01 176.01 0.0 0 0 256.00 79.98
  A 176.01 176.01 0.0 0 0 79.99 255.99
  A 176.01 176.01 0.0 0 0 256.00 432.00
  A 176.01 176.01 0.0 0 0 432.01 255.99
  Z"
/>
<circle fill="#ffffff" cx="255.99" cy="159.99" r="31.96"/>
<path fill="#ffffff" d="
  M 259.27 224.21
  C 272.23 225.56 282.80 234.46 286.65 246.89
  Q 288.08 251.50 288.05 261.49
  Q 287.90 307.54 288.03 350.29
  Q 288.07 361.83 282.27 370.14
  C 266.84 392.27 232.83 386.69 225.26 360.77
  Q 223.88 356.04 223.93 344.42
  Q 224.09 301.72 223.98 256.64
  C 223.93 237.54 239.95 222.21 259.27 224.21
  Z"
/>
</svg>
