<?xml version="1.0" encoding="UTF-8" standalone="no"?>
<!DOCTYPE svg PUBLIC "-//W3C//DTD SVG 1.1//EN" "http://www.w3.org/Graphics/SVG/1.1/DTD/svg11.dtd">
<svg xmlns="http://www.w3.org/2000/svg" version="1.1" viewBox="0.00 0.00 512.00 512.00">
<path fill="#ffffff" d="
  M 512.00 282.65
  L 512.00 294.00
  Q 511.63 301.01 511.24 307.99
  Q 508.54 356.75 495.92 402.70
  Q 490.01 424.21 480.82 443.19
  C 469.76 466.04 452.25 488.91 425.86 493.24
  C 413.13 495.33 399.70 492.56 387.52 487.81
  C 362.02 477.87 339.51 460.44 320.60 440.16
  Q 301.50 419.70 289.75 395.88
  A 0.55 0.54 -13.1 0 0 289.26 395.58
  L 223.14 395.57
  Q 222.40 395.57 222.07 396.23
  Q 204.93 430.78 172.09 458.26
  C 146.30 479.85 104.89 503.45 71.50 487.67
  C 45.27 475.28 29.65 443.68 20.81 417.47
  Q 11.26 389.18 6.35 358.88
  Q 1.20 327.09 0.00 294.87
  L 0.00 282.75
  Q 0.42 278.50 0.82 274.25
  Q 1.27 269.34 1.95 265.78
  Q 12.50 210.62 59.49 180.33
  Q 83.23 165.02 112.62 162.30
  Q 120.90 161.53 132.13 161.56
  Q 189.99 161.70 246.98 161.61
  C 248.90 161.60 249.70 160.46 250.94 159.27
  C 260.03 150.52 271.98 132.77 265.06 119.78
  Q 263.01 115.94 258.66 112.14
  C 238.22 94.28 221.82 71.84 231.18 43.84
  Q 233.83 35.90 239.72 26.82
  Q 243.46 21.03 247.64 19.28
  C 258.85 14.59 271.03 24.56 267.47 36.60
  Q 266.54 39.73 264.31 42.73
  C 257.08 52.43 254.91 62.69 262.36 73.31
  C 267.18 80.18 273.21 86.05 279.41 91.65
  C 300.42 110.60 300.42 137.94 286.52 161.02
  Q 286.14 161.65 286.88 161.65
  Q 337.34 161.58 389.51 161.66
  C 426.99 161.72 463.09 180.68 485.83 210.47
  Q 509.82 241.90 512.00 282.65
  Z
  M 411.21 464.42
  C 421.90 466.22 430.96 462.29 438.25 454.92
  Q 446.40 446.70 452.30 435.23
  Q 462.44 415.56 468.66 391.62
  Q 481.65 341.70 482.82 291.00
  Q 483.49 262.16 469.03 237.71
  C 452.18 209.21 421.41 190.79 387.83 190.78
  Q 260.28 190.73 125.30 190.78
  C 90.90 190.79 60.75 209.27 43.08 238.55
  Q 28.81 262.20 29.24 290.88
  Q 30.09 346.90 44.51 397.31
  Q 50.67 418.86 60.35 436.36
  Q 66.84 448.09 75.45 455.74
  Q 87.54 466.47 103.36 462.93
  C 118.15 459.62 131.95 451.81 144.75 442.35
  C 167.72 425.39 188.89 401.78 199.23 375.85
  C 201.52 370.12 206.87 366.44 213.08 366.44
  Q 256.40 366.48 298.81 366.44
  C 306.20 366.43 310.80 370.84 313.43 377.39
  Q 317.63 387.80 323.30 396.45
  Q 346.11 431.22 381.97 452.89
  C 390.73 458.18 400.93 462.70 411.21 464.42
  Z"
/>
<path fill="#ffffff" d="
  M 130.76 301.10
  Q 130.72 321.51 130.78 344.24
  C 130.82 354.76 116.19 354.58 116.20 344.80
  Q 116.23 322.43 116.22 300.87
  Q 116.22 300.51 115.86 300.51
  Q 93.82 300.48 70.05 300.52
  C 59.75 300.54 59.70 285.99 69.66 285.99
  Q 92.73 285.98 115.61 285.99
  Q 116.21 285.99 116.21 285.38
  Q 116.24 264.12 116.20 243.40
  C 116.17 232.52 130.74 232.88 130.75 242.72
  Q 130.76 264.32 130.75 285.61
  A 0.42 0.41 0.0 0 0 131.17 286.02
  Q 149.98 285.99 171.55 285.98
  C 181.70 285.97 181.59 300.54 171.30 300.52
  Q 149.44 300.49 131.36 300.51
  Q 130.76 300.51 130.76 301.10
  Z"
/>
<path fill="#ffffff" d="
  M 417.71 269.37
  A 25.00 25.00 0.0 0 1 392.71 294.37
  A 25.00 25.00 0.0 0 1 367.71 269.37
  A 25.00 25.00 0.0 0 1 392.71 244.37
  A 25.00 25.00 0.0 0 1 417.71 269.37
  Z
  M 403.14 269.31
  A 10.43 10.43 0.0 0 0 392.71 258.88
  A 10.43 10.43 0.0 0 0 382.28 269.31
  A 10.43 10.43 0.0 0 0 392.71 279.74
  A 10.43 10.43 0.0 0 0 403.14 269.31
  Z"
/>
<path fill="#ffffff" d="
  M 377.61 309.48
  A 25.00 25.00 0.0 0 1 352.61 334.48
  A 25.00 25.00 0.0 0 1 327.61 309.48
  A 25.00 25.00 0.0 0 1 352.61 284.48
  A 25.00 25.00 0.0 0 1 377.61 309.48
  Z
  M 363.04 309.41
  A 10.42 10.42 0.0 0 0 352.62 298.99
  A 10.42 10.42 0.0 0 0 342.20 309.41
  A 10.42 10.42 0.0 0 0 352.62 319.83
  A 10.42 10.42 0.0 0 0 363.04 309.41
  Z"
/>
<path fill="#ffffff" d="
  M 457.81 309.48
  A 25.00 25.00 0.0 0 1 432.81 334.48
  A 25.00 25.00 0.0 0 1 407.81 309.48
  A 25.00 25.00 0.0 0 1 432.81 284.48
  A 25.00 25.00 0.0 0 1 457.81 309.48
  Z
  M 443.24 309.41
  A 10.42 10.42 0.0 0 0 432.82 298.99
  A 10.42 10.42 0.0 0 0 422.40 309.41
  A 10.42 10.42 0.0 0 0 432.82 319.83
  A 10.42 10.42 0.0 0 0 443.24 309.41
  Z"
/>
<path fill="#ffffff" d="
  M 417.71 349.58
  A 25.00 25.00 0.0 0 1 392.71 374.58
  A 25.00 25.00 0.0 0 1 367.71 349.58
  A 25.00 25.00 0.0 0 1 392.71 324.58
  A 25.00 25.00 0.0 0 1 417.71 349.58
  Z
  M 403.13 349.51
  A 10.42 10.42 0.0 0 0 392.71 339.09
  A 10.42 10.42 0.0 0 0 382.29 349.51
  A 10.42 10.42 0.0 0 0 392.71 359.93
  A 10.42 10.42 0.0 0 0 403.13 349.51
  Z"
/>
<path fill="#ffffff" d="
  M 193.29 352.34
  Q 189.67 360.10 185.82 366.33
  Q 165.03 399.94 135.53 424.72
  C 125.12 433.46 111.74 442.46 98.17 444.21
  C 86.23 445.74 85.25 430.41 95.92 429.90
  Q 100.24 429.69 104.37 427.85
  C 114.09 423.52 122.90 416.57 130.79 409.57
  Q 145.35 396.65 159.95 378.30
  Q 174.15 360.46 181.96 342.20
  Q 184.12 337.15 188.93 337.19
  Q 201.24 337.27 214.94 337.14
  C 225.76 337.05 225.51 351.77 215.19 351.75
  Q 204.94 351.73 194.26 351.72
  Q 193.58 351.72 193.29 352.34
  Z"
/>
<rect fill="#ffffff" x="230.57" y="337.26" width="21.60" height="14.38" rx="6.73"/>
</svg>
