<?xml version="1.0" encoding="UTF-8" standalone="no"?>
<!DOCTYPE svg PUBLIC "-//W3C//DTD SVG 1.1//EN" "http://www.w3.org/Graphics/SVG/1.1/DTD/svg11.dtd">
<svg xmlns="http://www.w3.org/2000/svg" version="1.1" viewBox="0.00 0.00 512.00 512.00">
<path fill="#ffffff" d="
  M 206.87 0.00
  L 305.25 0.00
  Q 315.15 1.71 318.43 9.33
  Q 320.15 13.32 320.13 21.84
  Q 319.86 107.72 320.07 191.32
  A 0.72 0.71 89.6 0 0 320.79 192.04
  Q 405.32 191.93 494.25 192.03
  C 503.85 192.04 510.39 196.77 512.00 206.88
  L 512.00 305.25
  Q 510.33 315.10 502.68 318.43
  Q 498.90 320.07 490.55 320.06
  Q 404.84 319.94 320.56 320.02
  A 0.56 0.55 -0.0 0 0 320.00 320.57
  Q 319.99 404.55 320.06 491.90
  Q 320.07 498.83 318.46 502.58
  Q 315.11 510.41 305.12 512.00
  L 206.75 512.00
  Q 196.90 510.33 193.57 502.68
  Q 191.97 498.98 191.97 491.87
  Q 192.05 407.53 192.00 321.01
  A 0.99 0.99 0.0 0 0 191.02 320.02
  Q 105.94 319.93 21.46 320.07
  Q 13.17 320.09 9.35 318.44
  Q 1.78 315.18 0.00 305.37
  L 0.00 206.51
  Q 1.80 196.86 9.33 193.57
  Q 13.14 191.91 21.35 191.93
  Q 106.71 192.12 191.03 191.97
  A 0.94 0.94 0.0 0 0 191.97 191.03
  Q 192.07 107.89 191.93 23.09
  Q 191.91 13.16 193.58 9.30
  Q 196.89 1.65 206.87 0.00
  Z"
/>
</svg>
