<?xml version="1.0" encoding="UTF-8" standalone="no"?>
<!DOCTYPE svg PUBLIC "-//W3C//DTD SVG 1.1//EN" "http://www.w3.org/Graphics/SVG/1.1/DTD/svg11.dtd">
<svg xmlns="http://www.w3.org/2000/svg" version="1.1" viewBox="0.00 0.00 512.00 512.00">
<path fill="#ffffff" d="
  M 158.88 0.00
  L 353.24 0.00
  Q 366.37 1.07 374.88 9.83
  C 380.36 15.47 383.83 23.47 383.88 31.25
  Q 383.95 42.25 384.09 53.61
  Q 384.28 67.97 382.36 73.76
  C 378.07 86.71 366.31 95.65 352.52 95.89
  Q 337.46 96.15 320.37 95.93
  A 0.36 0.36 0.0 0 0 320.00 96.29
  L 320.00 127.25
  A 0.75 0.75 0.0 0 0 320.75 128.00
  L 447.47 128.00
  Q 447.95 128.00 448.25 128.39
  Q 477.22 167.03 506.11 205.63
  Q 511.25 212.49 512.00 222.88
  L 512.00 225.49
  Q 510.52 242.00 498.07 250.31
  C 482.97 260.40 463.49 256.29 453.23 241.45
  Q 450.12 236.94 446.91 231.97
  A 0.38 0.37 36.3 0 0 446.23 232.07
  C 441.61 248.56 426.45 258.64 409.40 255.20
  Q 401.95 253.70 395.52 248.40
  Q 385.11 239.82 384.10 225.23
  Q 384.01 223.95 383.92 225.22
  Q 382.64 241.97 369.18 250.84
  C 362.57 255.20 354.23 256.73 346.38 255.38
  Q 338.09 253.96 331.27 248.19
  Q 321.12 239.62 320.10 225.22
  Q 320.01 223.96 319.92 225.22
  Q 318.64 241.97 305.18 250.85
  C 298.59 255.19 290.22 256.73 282.38 255.38
  Q 274.12 253.96 267.27 248.19
  Q 257.12 239.62 256.10 225.22
  Q 256.02 224.03 255.92 225.22
  Q 254.67 240.71 243.38 249.30
  C 234.00 256.44 220.89 258.00 210.55 252.87
  Q 193.42 244.38 192.06 224.85
  Q 192.06 224.79 192.00 224.78
  Q 191.95 224.77 191.91 224.81
  Q 191.85 224.89 191.85 224.99
  C 191.01 244.29 174.52 258.06 155.43 255.51
  Q 145.71 254.21 138.30 247.34
  Q 129.02 238.72 128.08 225.23
  Q 128.00 224.05 127.91 225.23
  Q 126.87 239.41 116.83 248.11
  Q 109.72 254.29 100.24 255.58
  C 84.00 257.79 70.02 247.51 65.76 231.98
  A 0.31 0.31 0.0 0 0 65.21 231.89
  C 61.26 237.57 57.88 244.00 52.54 248.34
  Q 43.73 255.52 32.51 255.82
  Q 22.12 256.10 13.94 250.30
  Q 1.36 241.39 0.00 225.36
  L 0.00 222.76
  Q 0.81 212.41 5.57 206.06
  Q 34.67 167.18 63.78 128.34
  A 0.83 0.83 0.0 0 1 64.45 128.00
  L 191.25 128.00
  A 0.75 0.74 90.0 0 0 191.99 127.25
  L 192.00 96.81
  A 0.72 0.72 0.0 0 0 191.30 96.09
  Q 180.01 95.81 169.96 96.06
  Q 157.15 96.37 151.08 94.58
  C 137.38 90.53 128.28 78.37 128.09 63.98
  Q 127.90 48.51 128.03 33.13
  C 128.09 26.75 129.47 20.75 132.84 15.35
  Q 141.47 1.54 158.88 0.00
  Z
  M 184.08 49.18
  L 184.26 54.99
  A 1.00 1.00 0.0 0 1 183.26 56.03
  L 160.98 56.00
  A 1.00 1.00 0.0 0 0 159.98 57.02
  L 160.05 62.99
  Q 160.06 63.99 161.07 64.00
  Q 175.79 64.07 189.06 63.89
  Q 190.23 63.88 191.44 63.74
  Q 192.08 63.67 192.08 63.02
  L 192.09 40.99
  Q 192.09 39.89 190.99 39.90
  L 168.90 40.07
  Q 167.71 40.08 167.73 38.89
  L 167.83 33.32
  Q 167.86 32.01 169.17 32.00
  L 191.04 31.98
  A 1.02 1.02 0.0 0 0 192.06 30.96
  L 192.02 25.01
  A 1.02 1.01 89.7 0 0 191.01 24.00
  L 160.49 24.00
  Q 159.98 24.00 159.98 24.51
  L 160.01 47.04
  A 0.95 0.94 0.3 0 0 160.95 47.98
  L 182.94 48.07
  Q 184.05 48.08 184.08 49.18
  Z
  M 215.78 48.88
  A 0.97 0.97 0.0 0 1 216.75 47.89
  L 230.99 47.89
  A 0.97 0.97 0.0 0 1 231.96 48.85
  L 232.07 63.08
  A 0.97 0.97 0.0 0 0 233.06 64.04
  L 239.06 63.95
  A 0.97 0.97 0.0 0 0 240.02 62.97
  L 239.97 24.96
  A 0.97 0.97 0.0 0 0 239.01 23.99
  L 232.98 23.96
  A 0.97 0.97 0.0 0 0 232.01 24.92
  L 231.95 39.11
  A 0.97 0.97 0.0 0 1 230.99 40.07
  L 216.98 40.10
  A 0.97 0.97 0.0 0 1 216.00 39.13
  L 215.93 24.95
  A 0.97 0.97 0.0 0 0 214.96 23.99
  L 208.96 23.96
  A 0.97 0.97 0.0 0 0 207.99 24.93
  L 208.03 63.07
  A 0.97 0.97 0.0 0 0 209.01 64.04
  L 215.08 63.94
  A 0.97 0.97 0.0 0 0 216.03 62.96
  L 215.78 48.88
  Z
  M 296.0170 25.0651
  A 1.10 1.10 0.0 0 0 294.9150 23.9670
  L 257.0351 24.0331
  A 1.10 1.10 0.0 0 0 255.9370 25.1350
  L 256.0030 62.9549
  A 1.10 1.10 0.0 0 0 257.1050 64.0530
  L 294.9849 63.9869
  A 1.10 1.10 0.0 0 0 296.0830 62.8850
  L 296.0170 25.0651
  Z
  M 319.73 48.94
  A 1.00 1.00 0.0 0 1 320.73 47.92
  L 351.09 48.01
  A 1.00 1.00 0.0 0 0 352.09 47.01
  L 352.07 25.01
  A 1.00 1.00 0.0 0 0 351.07 24.01
  L 312.94 23.99
  A 1.00 1.00 0.0 0 0 311.94 24.99
  L 312.03 63.06
  A 1.00 1.00 0.0 0 0 313.05 64.06
  L 319.06 63.93
  A 1.00 1.00 0.0 0 0 320.04 62.91
  L 319.73 48.94
  Z
  M 288.00 96.76
  A 0.76 0.76 0.0 0 0 287.24 96.00
  L 224.76 96.00
  A 0.76 0.76 0.0 0 0 224.00 96.76
  L 224.00 127.24
  A 0.76 0.76 0.0 0 0 224.76 128.00
  L 287.24 128.00
  A 0.76 0.76 0.0 0 0 288.00 127.24
  L 288.00 96.76
  Z"
/>
<rect fill="#ffffff" x="-12.02" y="-12.02" transform="translate(275.98,43.99) rotate(-0.2)" width="24.04" height="24.04" rx="1.24"/>
<rect fill="#ffffff" x="-12.18" y="-4.01" transform="translate(332.04,36.02) rotate(0.1)" width="24.36" height="8.02" rx="1.30"/>
<path fill="#ffffff" d="
  M 448.00 447.38
  A 0.62 0.62 0.0 0 1 447.38 448.00
  L 64.62 448.00
  A 0.62 0.62 0.0 0 1 64.00 447.38
  L 64.00 272.62
  A 0.62 0.62 0.0 0 1 64.62 272.00
  L 447.38 272.00
  A 0.62 0.62 0.0 0 1 448.00 272.62
  L 448.00 447.38
  Z
  M 192.00 304.72
  A 0.72 0.72 0.0 0 0 191.28 304.00
  L 96.72 304.00
  A 0.72 0.72 0.0 0 0 96.00 304.72
  L 96.00 415.28
  A 0.72 0.72 0.0 0 0 96.72 416.00
  L 191.28 416.00
  A 0.72 0.72 0.0 0 0 192.00 415.28
  L 192.00 304.72
  Z
  M 416.00 304.82
  A 0.82 0.82 0.0 0 0 415.18 304.00
  L 224.82 304.00
  A 0.82 0.82 0.0 0 0 224.00 304.82
  L 224.00 415.18
  A 0.82 0.82 0.0 0 0 224.82 416.00
  L 415.18 416.00
  A 0.82 0.82 0.0 0 0 416.00 415.18
  L 416.00 304.82
  Z"
/>
<circle fill="#ffffff" cx="128.00" cy="352.00" r="15.93"/>
<path fill="#ffffff" d="
  M 512.00 510.88
  L 512.00 512.00
  L 0.00 512.00
  L 0.00 510.75
  Q 0.46 508.02 0.73 505.25
  C 1.16 500.87 2.67 495.74 4.58 491.84
  Q 14.80 470.96 37.76 465.19
  Q 39.66 464.71 45.08 464.27
  Q 48.37 464.00 52.43 464.00
  Q 258.21 463.99 464.00 464.01
  Q 472.84 464.01 482.58 467.98
  Q 491.30 471.52 498.15 478.53
  Q 506.95 487.54 510.34 500.09
  Q 510.88 502.13 511.27 505.46
  Q 511.58 508.18 512.00 510.88
  Z"
/>
</svg>
