<?xml version="1.0" encoding="UTF-8" standalone="no"?>
<!DOCTYPE svg PUBLIC "-//W3C//DTD SVG 1.1//EN" "http://www.w3.org/Graphics/SVG/1.1/DTD/svg11.dtd">
<svg xmlns="http://www.w3.org/2000/svg" version="1.1" viewBox="0.00 0.00 512.00 512.00">
<path fill="#ffffff" d="
  M 251.11 0.00
  L 260.99 0.00
  Q 325.13 1.66 379.17 31.83
  Q 422.53 56.03 453.09 93.15
  Q 509.25 161.37 512.00 251.11
  L 512.00 261.00
  Q 511.61 263.82 511.49 266.74
  Q 509.32 320.53 486.04 367.80
  C 456.87 427.04 406.52 472.79 344.68 495.99
  Q 307.73 509.86 267.25 511.50
  Q 264.01 511.63 260.87 512.00
  L 251.01 512.00
  Q 188.19 510.38 135.08 481.41
  Q 90.32 456.99 58.91 418.85
  Q 2.76 350.64 0.00 260.89
  L 0.00 251.01
  Q 1.65 187.45 31.83 132.82
  C 48.58 102.49 71.92 75.16 99.60 53.81
  Q 165.89 2.65 251.11 0.00
  Z
  M 180.07 141.98
  C 174.40 181.01 197.48 218.56 236.41 227.99
  C 264.75 234.85 294.33 226.76 313.83 204.95
  C 336.74 179.35 339.12 138.16 319.69 109.86
  Q 302.25 84.45 271.53 78.34
  Q 255.79 75.21 240.16 78.41
  Q 209.36 84.71 192.08 110.19
  Q 182.67 124.07 180.07 141.98
  Z
  M 102.76 358.91
  C 140.03 412.68 202.76 444.58 268.62 439.86
  C 325.46 435.79 376.77 405.73 409.22 358.93
  Q 409.52 358.50 409.53 357.97
  C 409.61 341.83 398.23 327.95 385.50 318.32
  Q 375.38 310.66 363.72 304.92
  Q 334.20 290.40 296.95 283.37
  C 279.79 280.13 262.00 278.26 245.02 279.43
  C 212.56 281.68 177.71 290.50 148.31 304.92
  C 127.85 314.95 103.28 332.56 102.40 357.66
  Q 102.37 358.35 102.76 358.91
  Z"
/>
</svg>
