<?xml version="1.0" encoding="UTF-8" standalone="no"?>
<!DOCTYPE svg PUBLIC "-//W3C//DTD SVG 1.1//EN" "http://www.w3.org/Graphics/SVG/1.1/DTD/svg11.dtd">
<svg xmlns="http://www.w3.org/2000/svg" version="1.1" viewBox="0.00 0.00 505.00 494.00">
<path fill="#ffffff" d="
  M 254.49 58.24
  L 291.95 58.21
  Q 292.59 58.21 292.29 58.78
  Q 287.47 68.01 283.63 76.87
  Q 281.96 80.71 279.60 84.74
  C 276.93 89.29 275.46 94.59 272.75 99.41
  C 270.46 103.49 269.60 107.73 267.46 111.66
  Q 261.87 121.94 256.75 132.74
  C 255.58 135.23 254.09 137.01 253.53 139.91
  Q 253.52 139.92 253.51 139.92
  L 253.27 139.87
  Q 253.15 139.84 253.17 139.72
  C 253.44 138.13 252.97 136.82 252.97 135.25
  Q 252.90 113.79 252.83 91.99
  A 0.37 0.36 -90.0 0 0 252.47 91.62
  L 215.04 91.63
  Q 214.46 91.63 214.72 91.11
  Q 216.32 87.98 218.03 84.83
  Q 219.74 81.69 221.10 78.46
  Q 223.51 72.75 226.31 67.23
  Q 228.13 63.66 229.67 59.96
  C 231.57 55.41 234.40 50.75 236.14 45.87
  Q 237.46 42.15 239.11 39.04
  C 242.46 32.71 245.05 26.04 248.18 19.82
  Q 250.64 14.95 252.81 10.50
  Q 253.35 9.41 253.55 8.00
  Q 253.87 5.80 253.87 8.00
  L 253.73 57.48
  Q 253.73 58.24 254.49 58.24
  Z"
/>
<path fill="#ffffff" d="
  M 332.87 324.82
  Q 324.55 323.37 316.26 321.24
  Q 310.75 319.82 304.61 316.96
  Q 298.71 314.20 293.03 311.42
  Q 291.08 310.47 289.08 309.40
  Q 287.17 308.39 285.67 306.95
  Q 283.11 304.49 280.04 302.22
  C 276.38 299.51 273.26 295.74 270.22 292.17
  Q 269.88 291.77 269.35 291.77
  Q 252.47 291.75 236.59 291.76
  C 235.23 291.76 234.42 292.79 233.92 293.94
  Q 233.72 294.41 233.30 294.71
  C 230.80 296.47 229.26 298.92 227.02 300.87
  Q 223.30 304.10 219.51 307.30
  Q 217.39 309.09 215.13 310.20
  C 213.05 311.22 211.13 312.40 209.02 313.32
  Q 204.11 315.47 199.48 317.72
  Q 195.34 319.74 190.63 320.97
  Q 182.20 323.18 174.03 324.89
  A 1.38 1.37 10.1 0 0 173.15 325.50
  C 172.37 326.75 172.07 328.23 171.30 329.53
  Q 166.80 337.15 163.05 345.03
  Q 161.59 348.09 156.73 354.88
  C 151.32 362.44 144.87 367.49 136.03 369.99
  Q 128.62 372.08 121.14 371.03
  Q 104.42 368.68 93.69 356.26
  Q 91.39 353.59 89.94 350.56
  C 88.68 347.90 86.66 346.00 85.54 343.21
  Q 81.24 332.55 79.42 322.20
  Q 78.02 314.23 78.14 303.01
  Q 78.42 275.92 78.13 250.41
  Q 77.99 238.70 79.43 230.84
  Q 81.43 219.91 85.87 209.47
  Q 87.07 206.65 88.74 204.07
  C 90.25 201.74 90.78 199.07 92.46 196.77
  Q 99.24 187.44 104.39 182.75
  Q 111.12 176.61 121.12 170.08
  Q 127.86 165.69 134.07 163.43
  Q 141.99 160.55 148.56 159.07
  Q 157.07 157.15 169.50 157.15
  Q 244.22 157.17 331.14 156.97
  C 341.42 156.95 350.91 157.44 360.49 159.27
  Q 363.30 159.80 366.18 160.96
  Q 369.05 162.11 371.80 162.95
  Q 376.67 164.45 378.48 165.44
  Q 385.34 169.21 391.78 173.70
  Q 402.97 181.49 410.99 191.56
  Q 414.02 195.36 416.10 199.38
  C 418.05 203.15 420.45 206.57 422.03 210.60
  Q 425.71 219.99 427.53 228.85
  Q 428.91 235.56 428.85 244.58
  Q 428.62 275.88 428.86 307.99
  Q 428.91 315.26 427.80 321.12
  Q 426.61 327.40 424.77 334.16
  Q 422.47 342.58 418.97 347.34
  C 416.37 350.86 414.90 354.84 411.67 358.00
  Q 402.42 367.04 391.01 370.03
  Q 380.83 372.71 371.88 370.26
  C 361.59 367.45 353.42 360.83 348.06 351.66
  C 346.30 348.65 344.08 346.15 342.60 342.98
  Q 339.90 337.23 336.42 331.14
  Q 334.85 328.41 333.75 325.54
  Q 333.51 324.93 332.87 324.82
  Z
  M 408.33 221.51
  C 409.89 227.76 410.42 234.09 409.98 240.23
  Q 409.32 249.55 405.62 260.54
  Q 402.59 269.55 395.15 278.74
  C 386.63 289.26 373.89 298.64 360.84 301.78
  Q 353.28 303.59 344.99 304.49
  Q 337.17 305.35 329.98 303.96
  Q 326.46 303.28 322.86 302.52
  Q 312.91 300.43 304.52 294.74
  Q 303.57 294.10 302.41 294.27
  A 0.80 0.80 0.0 0 0 301.93 295.60
  Q 306.93 301.02 311.69 302.76
  Q 317.17 304.77 325.51 306.68
  Q 332.39 308.25 336.95 308.39
  C 345.91 308.67 354.49 307.12 362.60 304.80
  C 378.07 300.37 390.69 290.27 400.61 277.18
  C 406.16 269.87 408.78 262.40 411.49 253.60
  C 414.38 244.22 414.80 233.73 413.04 224.75
  C 411.48 216.80 407.95 208.70 404.46 201.17
  Q 403.12 198.27 401.37 196.49
  Q 399.41 194.48 397.99 192.41
  Q 393.59 186.03 388.85 182.39
  Q 384.49 179.05 379.53 175.45
  C 375.48 172.51 371.16 170.78 366.82 168.60
  C 360.03 165.17 353.28 164.50 346.07 163.84
  C 339.20 163.20 332.18 163.39 325.59 164.36
  C 317.55 165.53 308.45 168.76 302.03 174.21
  Q 300.74 175.31 302.26 176.07
  L 302.77 176.33
  Q 304.08 176.98 305.27 176.12
  Q 311.20 171.83 320.20 169.18
  Q 333.51 165.25 346.72 166.78
  C 349.50 167.10 352.02 167.77 354.74 168.31
  Q 357.72 168.90 360.57 169.96
  Q 365.45 171.78 369.56 173.50
  Q 373.46 175.14 376.90 177.60
  Q 380.02 179.83 383.09 181.94
  Q 390.16 186.78 394.57 193.38
  Q 396.01 195.54 397.72 197.56
  C 400.64 201.03 403.14 206.13 404.77 210.18
  Q 406.68 214.92 408.33 221.51
  Z
  M 153.07 165.13
  Q 148.92 165.78 145.89 166.88
  Q 137.98 169.75 130.24 173.85
  Q 127.58 175.26 125.49 176.98
  C 121.83 180.01 117.94 182.55 114.69 185.89
  C 107.50 193.27 101.86 201.76 98.70 211.24
  C 97.37 215.26 95.76 219.14 95.11 223.34
  C 94.43 227.79 93.66 231.94 93.78 236.55
  Q 94.02 245.37 96.25 254.15
  Q 97.23 257.99 98.81 262.53
  Q 100.35 266.98 102.29 270.32
  Q 110.19 283.87 121.89 293.07
  Q 132.08 301.08 142.13 303.98
  Q 149.38 306.07 156.61 307.48
  C 161.14 308.37 165.40 308.51 169.90 308.70
  Q 170.87 308.73 170.87 307.77
  L 170.87 305.93
  Q 170.88 305.07 170.01 305.03
  Q 157.28 304.44 146.54 301.63
  Q 140.55 300.06 135.71 297.68
  Q 119.89 289.90 109.33 274.90
  Q 102.57 265.31 100.27 255.99
  Q 97.14 243.29 98.14 229.59
  C 99.36 212.95 106.65 199.12 118.15 187.26
  C 120.56 184.77 123.25 183.01 125.81 180.79
  Q 128.66 178.33 131.84 176.69
  Q 141.64 171.64 149.81 169.40
  Q 159.24 166.81 170.82 166.71
  Q 171.91 166.70 171.42 165.73
  L 170.86 164.60
  Q 170.41 163.69 169.38 163.69
  Q 161.90 163.73 153.07 165.13
  Z
  M 359.2303 196.3200
  A 19.74 19.31 -1.8 0 0 338.8935 177.6395
  A 19.74 19.31 -1.8 0 0 319.7697 197.5600
  A 19.74 19.31 -1.8 0 0 340.1065 216.2405
  A 19.74 19.31 -1.8 0 0 359.2303 196.3200
  Z
  M 150.92 250.12
  A 0.35 0.35 0.0 0 1 151.27 250.47
  L 151.21 283.61
  A 0.35 0.35 0.0 0 0 151.56 283.96
  L 180.22 283.99
  A 0.35 0.35 0.0 0 0 180.57 283.64
  L 180.47 250.33
  A 0.35 0.35 0.0 0 1 180.82 249.98
  L 213.88 250.00
  A 0.35 0.35 0.0 0 0 214.23 249.65
  L 214.23 220.66
  A 0.35 0.35 0.0 0 0 213.88 220.31
  L 180.74 220.24
  A 0.35 0.35 0.0 0 1 180.39 219.89
  L 180.49 188.10
  A 0.35 0.35 0.0 0 0 180.14 187.75
  L 151.60 187.72
  A 0.35 0.35 0.0 0 0 151.25 188.07
  L 151.26 219.91
  A 0.35 0.35 0.0 0 1 150.91 220.26
  L 117.99 220.25
  A 0.35 0.35 0.0 0 0 117.64 220.60
  L 117.60 249.79
  A 0.35 0.35 0.0 0 0 117.95 250.14
  L 150.92 250.12
  Z
  M 306.0726 254.1417
  A 20.25 19.85 83.3 0 0 323.4244 231.7141
  A 20.25 19.85 83.3 0 0 301.3474 213.9183
  A 20.25 19.85 83.3 0 0 283.9956 236.3459
  A 20.25 19.85 83.3 0 0 306.0726 254.1417
  Z
  M 375.2705 254.2699
  A 20.21 19.77 89.8 0 0 394.9699 233.9910
  A 20.21 19.77 89.8 0 0 375.1295 213.8501
  A 20.21 19.77 89.8 0 0 355.4301 234.1290
  A 20.21 19.77 89.8 0 0 375.2705 254.2699
  Z
  M 359.01 271.96
  A 19.56 19.56 0.0 0 0 339.45 252.40
  A 19.56 19.56 0.0 0 0 319.89 271.96
  A 19.56 19.56 0.0 0 0 339.45 291.52
  A 19.56 19.56 0.0 0 0 359.01 271.96
  Z
  M 253.51 281.55
  C 256.98 281.46 260.54 282.39 263.88 282.22
  A 0.52 0.51 72.8 0 0 264.29 281.43
  C 263.22 279.67 261.94 278.20 261.16 276.30
  Q 259.36 271.92 257.57 267.72
  Q 256.28 264.68 255.38 260.82
  Q 254.58 257.36 253.22 253.47
  Q 252.68 251.93 252.26 253.51
  Q 249.34 264.42 244.56 275.40
  C 243.63 277.54 242.54 279.37 241.31 281.31
  Q 240.84 282.05 241.71 282.00
  Q 247.42 281.72 253.51 281.55
  Z"
/>
<path fill="#ffffff" d="
  M 174.17 422.16
  Q 174.36 422.58 174.66 422.84
  Q 174.95 423.10 175.35 423.13
  Q 176.76 423.22 178.19 423.41
  Q 178.75 423.49 179.22 423.80
  Q 179.74 424.16 180.31 423.93
  Q 180.97 423.66 180.90 422.95
  Q 180.81 421.94 179.83 421.82
  Q 179.32 421.75 179.17 421.26
  Q 178.45 419.02 178.28 416.95
  Q 177.96 413.12 177.23 408.91
  A 0.93 0.92 66.5 0 1 177.58 408.01
  Q 177.96 407.72 178.47 407.60
  Q 179.10 407.45 178.48 407.28
  Q 176.37 406.69 174.61 407.94
  Q 173.62 408.64 174.19 407.57
  Q 174.68 406.64 176.04 406.34
  Q 182.14 404.98 187.57 404.51
  Q 190.89 404.23 194.41 403.56
  C 199.81 402.55 206.24 402.13 211.34 403.90
  C 212.33 404.25 213.68 404.03 214.82 404.12
  Q 225.98 405.08 232.96 406.52
  Q 236.87 407.32 241.07 411.08
  Q 242.60 412.44 242.89 414.55
  Q 244.08 423.21 236.24 427.95
  Q 233.70 429.49 231.06 429.53
  Q 230.30 429.54 230.83 430.08
  C 232.05 431.32 233.23 432.32 234.01 433.94
  Q 236.79 439.66 240.60 444.66
  C 241.75 446.17 242.03 447.53 242.55 449.26
  Q 242.76 449.98 242.21 449.47
  L 240.69 448.05
  Q 240.32 447.70 239.82 447.69
  L 235.21 447.61
  Q 234.67 447.60 234.34 447.18
  Q 233.30 445.87 231.84 445.11
  Q 228.72 443.49 227.20 440.08
  Q 226.32 438.11 225.77 440.20
  C 225.03 443.04 224.37 445.23 221.94 446.90
  Q 220.14 448.14 218.27 446.99
  Q 213.29 443.95 212.51 439.18
  Q 211.98 435.86 212.09 431.94
  Q 212.19 428.45 212.97 425.13
  C 213.83 421.49 214.69 417.11 213.93 413.44
  C 213.48 411.24 211.56 410.34 209.87 409.21
  Q 209.48 408.96 209.07 409.17
  Q 206.35 410.60 203.55 411.78
  Q 199.36 413.54 195.77 418.81
  Q 195.46 419.27 196.00 419.34
  C 198.65 419.70 203.81 420.50 204.04 424.08
  Q 204.21 426.77 204.68 429.10
  Q 204.77 429.52 204.38 429.73
  C 202.55 430.74 200.49 431.10 198.75 432.24
  Q 194.51 435.02 190.08 437.76
  Q 188.81 438.55 190.30 438.66
  L 203.31 439.56
  Q 203.88 439.60 204.30 439.97
  Q 205.85 441.38 206.69 443.72
  Q 206.98 444.54 206.34 443.95
  L 205.72 443.37
  Q 204.40 442.14 204.50 443.94
  L 204.80 449.53
  Q 204.84 450.18 204.19 450.21
  Q 199.52 450.45 194.62 450.28
  C 191.81 450.19 189.02 450.59 186.22 450.69
  C 184.12 450.76 182.28 451.76 180.20 452.17
  Q 177.07 452.80 176.97 449.58
  C 176.84 445.10 175.14 441.16 174.74 436.79
  Q 174.12 429.86 173.83 423.75
  Q 173.79 422.91 174.17 422.16
  Z"
/>
<path fill="#ffffff" d="
  M 419.36 410.15
  Q 420.52 410.93 421.68 411.44
  Q 422.22 411.68 422.21 412.27
  Q 422.18 414.61 421.25 416.58
  Q 420.99 417.12 420.40 417.20
  L 415.25 417.89
  Q 414.29 418.02 415.23 418.27
  C 418.28 419.06 420.59 418.59 423.25 420.94
  C 425.19 422.65 425.36 425.16 426.00 427.47
  A 1.79 1.78 68.3 0 1 425.12 429.52
  Q 418.47 433.06 411.83 437.73
  Q 410.44 438.70 412.13 438.86
  Q 418.45 439.46 424.98 439.18
  Q 425.59 439.15 425.47 439.74
  L 425.09 441.78
  Q 424.93 442.62 425.78 442.54
  L 428.05 442.34
  Q 429.11 442.25 428.25 442.87
  L 426.06 444.43
  Q 425.69 444.69 425.66 445.16
  L 425.41 450.05
  Q 425.39 450.48 424.97 450.51
  Q 420.35 450.88 416.09 450.49
  Q 413.77 450.28 411.32 450.63
  Q 408.26 451.06 405.28 451.09
  C 403.05 451.12 401.20 452.01 398.90 451.77
  A 2.09 2.07 -83.4 0 1 397.06 449.43
  L 398.05 441.90
  Q 398.12 441.35 397.57 441.33
  Q 397.38 441.32 397.22 441.39
  Q 396.25 441.82 396.16 440.76
  Q 395.35 431.00 396.05 422.95
  Q 396.35 419.39 397.11 422.88
  Q 397.39 424.23 397.46 425.54
  Q 397.47 425.65 397.55 425.71
  Q 397.70 425.81 397.83 425.77
  Q 397.99 425.72 398.02 425.55
  C 398.53 422.54 399.07 419.31 400.07 416.40
  C 400.77 414.38 400.05 412.45 400.18 410.40
  Q 400.22 409.67 399.81 410.27
  Q 399.29 411.04 399.64 411.83
  C 400.05 412.76 399.20 413.74 398.52 414.25
  Q 398.03 414.60 397.86 414.03
  Q 397.68 413.43 397.25 412.99
  A 1.68 1.68 0.0 0 1 397.26 410.62
  Q 398.81 409.06 400.10 407.34
  C 401.40 405.59 403.67 405.26 405.56 404.55
  Q 406.25 404.29 406.96 404.58
  A 1.35 1.35 0.0 0 0 408.05 404.56
  Q 409.88 403.71 410.67 405.65
  Q 410.91 406.23 411.23 405.68
  Q 412.49 403.49 415.57 403.17
  Q 420.46 402.66 424.25 402.92
  Q 433.08 403.53 441.50 404.73
  Q 444.80 405.20 448.45 405.53
  Q 455.30 406.15 460.95 409.54
  Q 463.56 411.10 464.11 414.70
  Q 465.11 421.26 460.88 425.28
  Q 457.34 428.66 452.33 430.29
  A 0.50 0.49 -29.0 0 0 452.10 431.08
  C 453.71 432.99 455.38 434.66 456.71 436.81
  Q 459.39 441.16 462.02 445.11
  C 463.30 447.02 461.84 450.22 459.24 449.08
  Q 451.52 445.68 445.32 439.82
  Q 443.76 438.34 444.31 440.42
  Q 444.49 441.12 444.82 441.81
  Q 446.29 444.90 443.77 446.56
  C 441.29 448.19 437.08 446.18 435.66 444.16
  C 434.16 442.00 433.20 438.98 433.20 436.29
  C 433.22 432.69 433.04 429.22 433.89 425.68
  Q 435.46 419.13 434.82 412.30
  Q 434.70 411.01 433.42 410.83
  L 431.26 410.53
  Q 430.71 410.46 430.57 409.92
  Q 430.32 408.96 429.70 408.29
  Q 429.44 408.01 429.09 408.09
  Q 428.55 408.19 428.60 408.74
  L 428.71 409.97
  Q 428.76 410.59 428.15 410.73
  Q 423.85 411.73 419.48 409.92
  Q 418.31 409.43 419.36 410.15
  Z
  M 421.95 422.67
  L 422.38 421.38
  A 0.25 0.25 0.0 0 0 422.23 421.06
  L 422.02 420.99
  A 3.51 0.84 18.6 0 0 418.42 420.67
  L 418.37 420.84
  A 3.51 0.84 18.6 0 0 421.42 422.76
  L 421.63 422.83
  A 0.25 0.25 0.0 0 0 421.95 422.67
  Z"
/>
<path fill="#ffffff" d="
  M 368.68 431.12
  Q 366.07 433.96 365.24 438.05
  C 364.50 441.70 364.16 447.71 359.03 447.89
  Q 355.98 448.01 354.08 446.29
  Q 352.06 444.45 351.45 441.54
  Q 350.80 438.44 350.49 435.53
  Q 348.92 420.93 348.17 406.39
  Q 348.05 404.18 350.26 403.99
  Q 351.50 403.89 353.26 404.23
  Q 354.63 404.49 354.77 405.87
  L 356.13 419.66
  Q 356.19 420.27 356.72 420.58
  C 359.36 422.07 359.23 424.35 360.40 426.73
  Q 361.01 427.97 361.37 426.64
  Q 362.86 421.07 364.60 416.32
  C 365.74 413.23 369.50 411.16 372.59 413.05
  C 374.52 414.22 376.22 420.02 377.17 422.25
  C 378.17 424.59 381.43 424.31 382.26 422.13
  Q 384.12 417.22 385.88 412.54
  Q 386.07 412.03 386.51 411.71
  Q 387.37 411.09 387.96 410.22
  Q 388.25 409.79 388.28 409.27
  Q 388.32 408.70 388.58 408.22
  Q 388.88 407.65 389.57 407.46
  Q 390.29 407.26 391.07 407.05
  Q 392.05 406.79 391.08 406.49
  Q 390.27 406.23 389.66 406.92
  A 0.31 0.30 -18.7 0 1 389.13 406.66
  L 389.53 404.73
  Q 389.65 404.16 390.23 404.16
  Q 393.00 404.16 395.47 402.98
  A 0.52 0.52 0.0 0 1 396.20 403.59
  Q 395.54 405.87 395.04 408.20
  C 394.53 410.51 392.71 412.18 391.94 414.50
  Q 390.56 418.64 389.69 422.64
  Q 388.81 426.69 387.62 430.90
  Q 385.66 437.85 383.66 444.49
  A 1.87 1.86 24.7 0 1 380.87 445.52
  Q 379.60 444.70 378.37 446.20
  A 2.82 2.82 0.0 0 1 373.89 446.03
  C 373.38 445.30 372.85 444.54 372.59 443.67
  Q 370.78 437.48 369.29 431.27
  Q 369.14 430.62 368.68 431.12
  Z
  M 393.3164 406.1426
  A 0.77 0.56 44.8 0 0 393.1646 405.2026
  A 0.77 0.56 44.8 0 0 392.2236 405.0574
  A 0.77 0.56 44.8 0 0 392.3754 405.9974
  A 0.77 0.56 44.8 0 0 393.3164 406.1426
  Z
  M 380.36 425.34
  A 0.33 0.33 0.0 0 0 380.07 424.86
  L 378.16 424.84
  A 0.33 0.33 0.0 0 0 377.83 425.20
  L 378.18 428.30
  A 0.33 0.33 0.0 0 0 378.80 428.41
  L 380.36 425.34
  Z"
/>
<path fill="#ffffff" d="
  M 120.82 421.86
  Q 121.23 422.07 121.68 422.20
  Q 122.21 422.36 122.14 422.91
  C 121.26 429.40 118.29 434.85 114.49 440.20
  Q 111.14 444.92 107.65 446.59
  Q 102.19 449.20 96.37 447.79
  Q 88.67 445.93 84.50 437.21
  Q 83.97 436.10 82.75 436.16
  L 78.29 436.39
  Q 77.23 436.44 77.73 437.39
  Q 80.98 443.51 86.33 448.71
  Q 86.74 449.10 86.56 449.64
  Q 86.04 451.24 86.37 452.90
  A 0.32 0.31 -85.8 0 1 85.96 453.26
  Q 81.43 451.63 77.22 449.50
  C 75.05 448.41 73.25 446.63 71.53 444.95
  C 69.40 442.89 69.05 440.19 68.27 437.43
  Q 68.11 436.87 67.52 436.87
  Q 66.66 436.87 66.08 437.56
  Q 65.72 437.98 65.18 437.95
  Q 62.12 437.75 61.39 434.85
  Q 60.65 431.93 60.91 429.48
  Q 60.96 428.98 61.33 428.64
  Q 63.38 426.77 65.90 426.42
  Q 74.08 425.27 85.27 424.69
  Q 85.63 424.67 85.91 424.44
  Q 86.07 424.30 85.98 424.11
  Q 85.84 423.79 86.01 423.48
  Q 89.01 418.28 92.92 413.99
  Q 93.22 413.66 93.17 413.22
  Q 92.98 411.52 94.39 410.26
  C 97.56 407.45 103.04 402.77 107.47 403.24
  Q 111.34 403.66 114.87 405.59
  C 117.32 406.94 118.34 409.17 120.21 411.10
  C 122.52 413.48 123.51 417.35 122.94 420.45
  Q 122.60 422.25 120.88 421.70
  Q 119.88 421.39 120.82 421.86
  Z
  M 97.26 422.81
  C 96.02 427.55 93.89 437.51 99.55 440.49
  A 2.44 2.44 0.0 0 0 102.63 439.83
  C 104.40 437.56 105.87 434.49 107.05 432.64
  C 110.03 427.95 118.21 418.27 108.98 414.46
  C 103.98 412.40 98.29 418.83 97.26 422.81
  Z"
/>
<path fill="#ffffff" d="
  M 308.42 419.94
  C 310.01 417.00 311.67 413.46 314.07 411.67
  Q 315.70 410.46 317.06 408.94
  Q 320.25 405.43 324.07 404.03
  C 329.15 402.18 334.94 403.82 338.44 408.13
  C 340.18 410.29 342.45 411.02 342.67 414.16
  Q 343.01 418.92 342.56 424.13
  Q 342.18 428.43 339.86 432.75
  Q 336.51 438.98 333.80 442.20
  Q 331.98 444.36 328.16 446.90
  Q 325.93 448.39 323.70 448.40
  C 316.98 448.43 311.57 446.93 307.86 440.71
  C 306.45 438.35 306.66 435.75 305.81 433.18
  Q 305.37 431.84 305.46 430.15
  Q 305.74 424.86 308.42 419.94
  Z
  M 317.10 433.40
  Q 317.53 435.26 317.69 437.20
  C 317.79 438.40 318.38 439.16 318.84 440.21
  Q 319.05 440.68 319.55 440.75
  C 322.40 441.18 324.88 438.50 326.08 436.29
  Q 329.04 430.84 331.91 426.20
  C 332.99 424.44 334.30 421.12 333.91 418.95
  C 333.36 415.92 330.15 413.23 326.84 414.32
  C 318.39 417.09 315.23 425.39 317.10 433.40
  Z"
/>
<path fill="#ffffff" d="
  M 157.68 429.54
  Q 158.42 427.20 159.67 425.02
  C 161.52 421.80 162.79 418.31 164.18 414.81
  C 164.82 413.22 164.72 411.77 166.10 410.52
  Q 166.47 410.18 166.64 409.70
  Q 167.42 407.43 168.56 405.32
  Q 169.60 403.39 172.29 404.08
  Q 173.01 404.26 173.07 405.01
  Q 173.30 407.95 172.34 410.29
  C 171.35 412.72 171.50 415.53 170.07 417.68
  Q 169.11 419.12 168.70 421.07
  Q 166.74 430.34 164.26 439.04
  Q 163.06 443.23 160.90 446.01
  Q 160.55 446.47 159.97 446.49
  L 154.54 446.73
  A 2.87 2.87 0.0 0 1 151.63 444.56
  L 148.55 432.22
  A 0.69 0.69 0.0 0 0 147.72 431.71
  Q 146.03 432.10 145.50 433.76
  Q 143.88 438.79 142.82 444.87
  Q 142.72 445.41 142.22 445.63
  Q 138.15 447.42 133.56 446.51
  A 1.16 1.14 -9.5 0 1 132.80 445.98
  Q 131.91 444.51 131.49 442.86
  C 130.53 439.13 129.60 435.34 129.26 431.45
  Q 128.27 420.15 126.71 408.24
  C 126.17 404.19 129.74 403.50 132.64 404.75
  A 0.93 0.92 -83.0 0 1 133.18 405.45
  C 133.54 407.73 134.85 409.43 134.73 411.83
  C 134.60 414.22 134.48 419.30 136.50 420.87
  Q 136.95 421.21 137.10 421.75
  Q 138.03 425.05 138.05 428.01
  Q 138.05 428.79 138.47 428.13
  Q 140.73 424.54 141.92 420.87
  C 142.96 417.69 144.57 415.01 146.59 412.41
  A 2.60 2.60 0.0 0 1 150.78 412.53
  Q 151.86 414.10 153.45 415.08
  Q 153.94 415.38 154.18 415.92
  Q 156.94 422.28 157.31 429.49
  Q 157.37 430.52 157.68 429.54
  Z
  M 149.6582 412.3587
  A 0.88 0.59 -26.4 0 0 148.6077 412.2215
  A 0.88 0.59 -26.4 0 0 148.0818 413.1413
  A 0.88 0.59 -26.4 0 0 149.1323 413.2785
  A 0.88 0.59 -26.4 0 0 149.6582 412.3587
  Z
  M 133.92 418.12
  Q 133.21 417.84 132.79 417.10
  A 0.43 0.42 -9.3 0 0 132.47 416.88
  L 131.59 416.79
  Q 130.75 416.69 131.24 417.38
  Q 132.52 419.17 134.56 418.47
  Q 134.99 418.32 134.64 418.02
  Q 134.48 417.88 134.33 418.04
  Q 134.15 418.21 133.92 418.12
  Z
  M 132.7775 427.1001
  A 0.87 0.70 -36.7 0 0 131.6617 427.0588
  A 0.87 0.70 -36.7 0 0 131.3825 428.1399
  A 0.87 0.70 -36.7 0 0 132.4983 428.1812
  A 0.87 0.70 -36.7 0 0 132.7775 427.1001
  Z"
/>
<path fill="#ffffff" d="
  M 269.75 405.93
  Q 269.60 405.77 269.56 405.56
  Q 269.43 404.75 270.24 404.75
  C 274.57 404.77 278.63 404.21 282.99 404.76
  Q 286.70 405.23 290.62 405.32
  C 295.60 405.43 302.28 407.43 305.35 411.80
  C 307.41 414.72 306.01 420.09 305.01 423.26
  C 303.26 428.85 298.97 432.22 293.37 433.72
  Q 289.01 434.89 284.73 435.87
  C 282.97 436.27 282.17 437.71 282.21 439.45
  Q 282.31 442.79 282.22 445.86
  Q 282.21 446.08 281.99 446.07
  L 273.03 445.80
  Q 272.76 445.80 272.76 445.53
  Q 272.73 436.75 272.76 428.00
  Q 272.77 426.75 273.08 425.57
  C 273.38 424.42 273.10 423.33 273.49 422.16
  Q 275.09 417.35 275.71 412.14
  A 0.99 0.98 89.1 0 0 274.59 411.05
  Q 272.00 411.42 270.71 413.40
  Q 270.20 414.19 270.10 413.25
  L 269.52 407.11
  Q 269.50 406.95 269.65 406.91
  Q 269.83 406.86 269.89 406.72
  Q 270.06 406.28 269.75 405.93
  Z"
/>
<path fill="#ffffff" d="
  M 84.30 420.39
  Q 80.55 418.94 76.83 420.38
  Q 76.33 420.57 76.07 421.03
  Q 75.49 422.03 74.45 422.09
  A 0.63 0.61 -9.7 0 1 73.83 421.66
  Q 72.38 417.08 68.17 414.64
  A 0.97 0.96 43.4 0 0 67.19 414.66
  Q 62.53 417.54 59.16 421.32
  Q 56.41 424.40 54.85 427.38
  Q 53.22 430.50 53.91 434.49
  C 54.86 439.93 59.82 442.10 65.02 441.72
  Q 65.68 441.68 65.69 442.34
  Q 65.78 446.93 65.22 451.45
  Q 65.15 451.99 64.61 451.93
  Q 53.02 450.61 46.47 441.13
  C 43.22 436.43 43.24 430.61 45.26 425.56
  Q 48.70 416.98 55.32 411.34
  Q 57.76 409.25 62.35 407.17
  Q 70.85 403.31 78.16 406.99
  C 81.48 408.66 84.93 409.91 88.41 411.26
  Q 89.66 411.75 90.10 412.38
  Q 90.96 413.64 89.58 414.94
  Q 89.28 415.22 88.96 414.96
  Q 88.12 414.27 88.13 413.11
  A 0.59 0.59 0.0 0 0 87.22 412.61
  Q 86.73 412.93 86.90 413.53
  Q 87.27 414.81 86.66 415.90
  A 1.59 1.56 -85.2 0 1 85.86 416.59
  C 85.01 416.91 84.52 418.00 85.22 418.72
  Q 85.79 419.32 86.21 418.61
  Q 86.36 418.35 86.66 418.32
  Q 87.51 418.24 86.89 418.83
  Q 86.76 418.96 86.55 418.86
  A 0.30 0.30 0.0 0 0 86.12 419.07
  Q 85.99 419.74 86.48 420.00
  A 0.58 0.58 0.0 0 1 86.76 420.66
  Q 86.52 421.58 85.86 422.32
  Q 85.54 422.68 85.15 422.40
  L 84.11 421.65
  Q 83.59 421.27 84.28 420.98
  Q 84.41 420.92 84.47 420.78
  A 0.30 0.30 0.0 0 0 84.30 420.39
  Z"
/>
<path fill="#ffffff" d="
  M 174.17 422.16
  Q 173.78 418.90 174.59 415.69
  Q 174.82 414.77 175.08 415.69
  Q 175.65 417.77 176.18 419.86
  Q 176.42 420.79 175.70 420.17
  Q 175.59 420.07 175.44 420.04
  Q 175.21 420.00 175.09 420.21
  Q 174.96 420.43 175.06 420.65
  Q 175.25 421.03 175.67 421.10
  Q 176.22 421.19 176.62 421.56
  Q 177.16 422.06 176.43 422.08
  L 174.17 422.16
  Z"
/>
</svg>
