<?xml version="1.0" encoding="UTF-8" standalone="no"?>
<svg
   version="1.1"
   viewBox="0 0 255025 244036"
   id="svg11"
   width="255025"
   height="244036"
   xmlns="http://www.w3.org/2000/svg"
   xmlns:svg="http://www.w3.org/2000/svg">
  <defs
     id="defs11" />
  <path
     fill="#ffffff"
     d="m 254.49,58.24 37.46,-0.03 q 0.64,0 0.34,0.57 -4.82,9.23 -8.66,18.09 -1.67,3.84 -4.03,7.87 c -2.67,4.55 -4.14,9.85 -6.85,14.67 -2.29,4.08 -3.15,8.32 -5.29,12.25 q -5.59,10.28 -10.71,21.08 c -1.17,2.49 -2.66,4.27 -3.22,7.17 q -0.01,0.01 -0.02,0.01 l -0.24,-0.05 q -0.12,-0.03 -0.1,-0.15 c 0.27,-1.59 -0.2,-2.9 -0.2,-4.47 q -0.07,-21.46 -0.14,-43.26 a 0.36,0.37 0 0 0 -0.36,-0.37 l -37.43,0.01 q -0.58,0 -0.32,-0.52 1.6,-3.13 3.31,-6.28 1.71,-3.14 3.07,-6.37 2.41,-5.71 5.21,-11.23 1.82,-3.57 3.36,-7.27 c 1.9,-4.55 4.73,-9.21 6.47,-14.09 q 1.32,-3.72 2.97,-6.83 c 3.35,-6.33 5.94,-13 9.07,-19.22 q 2.46,-4.87 4.63,-9.32 0.54,-1.09 0.74,-2.5 0.32,-2.2 0.32,0 l -0.14,49.48 q 0,0.76 0.76,0.76 z"
     id="path1" />
  <path
     fill="#ffffff"
     d="m 332.87,324.82 q -8.32,-1.45 -16.61,-3.58 -5.51,-1.42 -11.65,-4.28 -5.9,-2.76 -11.58,-5.54 -1.95,-0.95 -3.95,-2.02 -1.91,-1.01 -3.41,-2.45 -2.56,-2.46 -5.63,-4.73 c -3.66,-2.71 -6.78,-6.48 -9.82,-10.05 q -0.34,-0.4 -0.87,-0.4 -16.88,-0.02 -32.76,-0.01 c -1.36,0 -2.17,1.03 -2.67,2.18 q -0.2,0.47 -0.62,0.77 c -2.5,1.76 -4.04,4.21 -6.28,6.16 q -3.72,3.23 -7.51,6.43 -2.12,1.79 -4.38,2.9 c -2.08,1.02 -4,2.2 -6.11,3.12 q -4.91,2.15 -9.54,4.4 -4.14,2.02 -8.85,3.25 -8.43,2.21 -16.6,3.92 a 1.38,1.37 10.1 0 0 -0.88,0.61 c -0.78,1.25 -1.08,2.73 -1.85,4.03 q -4.5,7.62 -8.25,15.5 -1.46,3.06 -6.32,9.85 c -5.41,7.56 -11.86,12.61 -20.7,15.11 q -7.41,2.09 -14.89,1.04 -16.72,-2.35 -27.45,-14.77 -2.3,-2.67 -3.75,-5.7 c -1.26,-2.66 -3.28,-4.56 -4.4,-7.35 q -4.3,-10.66 -6.12,-21.01 -1.4,-7.97 -1.28,-19.19 0.28,-27.09 -0.01,-52.6 -0.14,-11.71 1.3,-19.57 2,-10.93 6.44,-21.37 1.2,-2.82 2.87,-5.4 c 1.51,-2.33 2.04,-5 3.72,-7.3 q 6.78,-9.33 11.93,-14.02 6.73,-6.14 16.73,-12.67 6.74,-4.39 12.95,-6.65 7.92,-2.88 14.49,-4.36 8.51,-1.92 20.94,-1.92 74.72,0.02 161.64,-0.18 c 10.28,-0.02 19.77,0.47 29.35,2.3 q 2.81,0.53 5.69,1.69 2.87,1.15 5.62,1.99 4.87,1.5 6.68,2.49 6.86,3.77 13.3,8.26 11.19,7.79 19.21,17.86 3.03,3.8 5.11,7.82 c 1.95,3.77 4.35,7.19 5.93,11.22 q 3.68,9.39 5.5,18.25 1.38,6.71 1.32,15.73 -0.23,31.3 0.01,63.41 0.05,7.27 -1.06,13.13 -1.19,6.28 -3.03,13.04 -2.3,8.42 -5.8,13.18 c -2.6,3.52 -4.07,7.5 -7.3,10.66 q -9.25,9.04 -20.66,12.03 -10.18,2.68 -19.13,0.23 c -10.29,-2.81 -18.46,-9.43 -23.82,-18.6 -1.76,-3.01 -3.98,-5.51 -5.46,-8.68 q -2.7,-5.75 -6.18,-11.84 -1.57,-2.73 -2.67,-5.6 -0.24,-0.61 -0.88,-0.72 z m 75.46,-103.31 c 1.56,6.25 2.09,12.58 1.65,18.72 q -0.66,9.32 -4.36,20.31 -3.03,9.01 -10.47,18.2 c -8.52,10.52 -21.26,19.9 -34.31,23.04 q -7.56,1.81 -15.85,2.71 -7.82,0.86 -15.01,-0.53 -3.52,-0.68 -7.12,-1.44 -9.95,-2.09 -18.34,-7.78 -0.95,-0.64 -2.11,-0.47 a 0.8,0.8 0 0 0 -0.48,1.33 q 5,5.42 9.76,7.16 5.48,2.01 13.82,3.92 6.88,1.57 11.44,1.71 c 8.96,0.28 17.54,-1.27 25.65,-3.59 15.47,-4.43 28.09,-14.53 38.01,-27.62 5.55,-7.31 8.17,-14.78 10.88,-23.58 2.89,-9.38 3.31,-19.87 1.55,-28.85 -1.56,-7.95 -5.09,-16.05 -8.58,-23.58 q -1.34,-2.9 -3.09,-4.68 -1.96,-2.01 -3.38,-4.08 -4.4,-6.38 -9.14,-10.02 -4.36,-3.34 -9.32,-6.94 c -4.05,-2.94 -8.37,-4.67 -12.71,-6.85 -6.79,-3.43 -13.54,-4.1 -20.75,-4.76 -6.87,-0.64 -13.89,-0.45 -20.48,0.52 -8.04,1.17 -17.14,4.4 -23.56,9.85 q -1.29,1.1 0.23,1.86 l 0.51,0.26 q 1.31,0.65 2.5,-0.21 5.93,-4.29 14.93,-6.94 13.31,-3.93 26.52,-2.4 c 2.78,0.32 5.3,0.99 8.02,1.53 q 2.98,0.59 5.83,1.65 4.88,1.82 8.99,3.54 3.9,1.64 7.34,4.1 3.12,2.23 6.19,4.34 7.07,4.84 11.48,11.44 1.44,2.16 3.15,4.18 c 2.92,3.47 5.42,8.57 7.05,12.62 q 1.91,4.74 3.56,11.33 z M 153.07,165.13 q -4.15,0.65 -7.18,1.75 -7.91,2.87 -15.65,6.97 -2.66,1.41 -4.75,3.13 c -3.66,3.03 -7.55,5.57 -10.8,8.91 -7.19,7.38 -12.83,15.87 -15.99,25.35 -1.33,4.02 -2.94,7.9 -3.59,12.1 -0.68,4.45 -1.45,8.6 -1.33,13.21 q 0.24,8.82 2.47,17.6 0.98,3.84 2.56,8.38 1.54,4.45 3.48,7.79 7.9,13.55 19.6,22.75 10.19,8.01 20.24,10.91 7.25,2.09 14.48,3.5 c 4.53,0.89 8.79,1.03 13.29,1.22 q 0.97,0.03 0.97,-0.93 v -1.84 q 0.01,-0.86 -0.86,-0.9 -12.73,-0.59 -23.47,-3.4 -5.99,-1.57 -10.83,-3.95 -15.82,-7.78 -26.38,-22.78 -6.76,-9.59 -9.06,-18.91 -3.13,-12.7 -2.13,-26.4 c 1.22,-16.64 8.51,-30.47 20.01,-42.33 2.41,-2.49 5.1,-4.25 7.66,-6.47 q 2.85,-2.46 6.03,-4.1 9.8,-5.05 17.97,-7.29 9.43,-2.59 21.01,-2.69 1.09,-0.01 0.6,-0.98 l -0.56,-1.13 q -0.45,-0.91 -1.48,-0.91 -7.48,0.04 -16.31,1.44 z m 206.1603,31.19 A 19.31,19.74 88.2 0 0 338.8935,177.6395 19.31,19.74 88.2 0 0 319.7697,197.56 19.31,19.74 88.2 0 0 340.1065,216.2405 19.31,19.74 88.2 0 0 359.2303,196.32 Z M 150.92,250.12 a 0.35,0.35 0 0 1 0.35,0.35 l -0.06,33.14 a 0.35,0.35 0 0 0 0.35,0.35 l 28.66,0.03 a 0.35,0.35 0 0 0 0.35,-0.35 l -0.1,-33.31 a 0.35,0.35 0 0 1 0.35,-0.35 l 33.06,0.02 a 0.35,0.35 0 0 0 0.35,-0.35 v -28.99 a 0.35,0.35 0 0 0 -0.35,-0.35 l -33.14,-0.07 a 0.35,0.35 0 0 1 -0.35,-0.35 l 0.1,-31.79 a 0.35,0.35 0 0 0 -0.35,-0.35 l -28.54,-0.03 a 0.35,0.35 0 0 0 -0.35,0.35 l 0.01,31.84 a 0.35,0.35 0 0 1 -0.35,0.35 l -32.92,-0.01 a 0.35,0.35 0 0 0 -0.35,0.35 l -0.04,29.19 a 0.35,0.35 0 0 0 0.35,0.35 z m 155.1526,4.0217 a 20.25,19.85 83.3 0 0 17.3518,-22.4276 20.25,19.85 83.3 0 0 -22.077,-17.7958 20.25,19.85 83.3 0 0 -17.3518,22.4276 20.25,19.85 83.3 0 0 22.077,17.7958 z m 69.1979,0.1282 a 20.21,19.77 89.8 0 0 19.6994,-20.2789 20.21,19.77 89.8 0 0 -19.8404,-20.1409 20.21,19.77 89.8 0 0 -19.6994,20.2789 20.21,19.77 89.8 0 0 19.8404,20.1409 z M 359.01,271.96 a 19.56,19.56 0 0 0 -19.56,-19.56 19.56,19.56 0 0 0 -19.56,19.56 19.56,19.56 0 0 0 19.56,19.56 19.56,19.56 0 0 0 19.56,-19.56 z m -105.5,9.59 c 3.47,-0.09 7.03,0.84 10.37,0.67 a 0.52,0.51 72.8 0 0 0.41,-0.79 c -1.07,-1.76 -2.35,-3.23 -3.13,-5.13 q -1.8,-4.38 -3.59,-8.58 -1.29,-3.04 -2.19,-6.9 -0.8,-3.46 -2.16,-7.35 -0.54,-1.54 -0.96,0.04 -2.92,10.91 -7.7,21.89 c -0.93,2.14 -2.02,3.97 -3.25,5.91 q -0.47,0.74 0.4,0.69 5.71,-0.28 11.8,-0.45 z"
     id="path2" />
  <path
     fill="#ffffff"
     d="m 174.17,422.16 q 0.19,0.42 0.49,0.68 0.29,0.26 0.69,0.29 1.41,0.09 2.84,0.28 0.56,0.08 1.03,0.39 0.52,0.36 1.09,0.13 0.66,-0.27 0.59,-0.98 -0.09,-1.01 -1.07,-1.13 -0.51,-0.07 -0.66,-0.56 -0.72,-2.24 -0.89,-4.31 -0.32,-3.83 -1.05,-8.04 a 0.93,0.92 66.5 0 1 0.35,-0.9 q 0.38,-0.29 0.89,-0.41 0.63,-0.15 0.01,-0.32 -2.11,-0.59 -3.87,0.66 -0.99,0.7 -0.42,-0.37 0.49,-0.93 1.85,-1.23 6.1,-1.36 11.53,-1.83 3.32,-0.28 6.84,-0.95 c 5.4,-1.01 11.83,-1.43 16.93,0.34 0.99,0.35 2.34,0.13 3.48,0.22 q 11.16,0.96 18.14,2.4 3.91,0.8 8.11,4.56 1.53,1.36 1.82,3.47 1.19,8.66 -6.65,13.4 -2.54,1.54 -5.18,1.58 -0.76,0.01 -0.23,0.55 c 1.22,1.24 2.4,2.24 3.18,3.86 q 2.78,5.72 6.59,10.72 c 1.15,1.51 1.43,2.87 1.95,4.6 q 0.21,0.72 -0.34,0.21 l -1.52,-1.42 q -0.37,-0.35 -0.87,-0.36 l -4.61,-0.08 q -0.54,-0.01 -0.87,-0.43 -1.04,-1.31 -2.5,-2.07 -3.12,-1.62 -4.64,-5.03 -0.88,-1.97 -1.43,0.12 c -0.74,2.84 -1.4,5.03 -3.83,6.7 q -1.8,1.24 -3.67,0.09 -4.98,-3.04 -5.76,-7.81 -0.53,-3.32 -0.42,-7.24 0.1,-3.49 0.88,-6.81 c 0.86,-3.64 1.72,-8.02 0.96,-11.69 -0.45,-2.2 -2.37,-3.1 -4.06,-4.23 q -0.39,-0.25 -0.8,-0.04 -2.72,1.43 -5.52,2.61 -4.19,1.76 -7.78,7.03 -0.31,0.46 0.23,0.53 c 2.65,0.36 7.81,1.16 8.04,4.74 q 0.17,2.69 0.64,5.02 0.09,0.42 -0.3,0.63 c -1.83,1.01 -3.89,1.37 -5.63,2.51 q -4.24,2.78 -8.67,5.52 -1.27,0.79 0.22,0.9 l 13.01,0.9 q 0.57,0.04 0.99,0.41 1.55,1.41 2.39,3.75 0.29,0.82 -0.35,0.23 l -0.62,-0.58 q -1.32,-1.23 -1.22,0.57 l 0.3,5.59 q 0.04,0.65 -0.61,0.68 -4.67,0.24 -9.57,0.07 c -2.81,-0.09 -5.6,0.31 -8.4,0.41 -2.1,0.07 -3.94,1.07 -6.02,1.48 q -3.13,0.63 -3.23,-2.59 c -0.13,-4.48 -1.83,-8.42 -2.23,-12.79 q -0.62,-6.93 -0.91,-13.04 -0.04,-0.84 0.34,-1.59 z"
     id="path3" />
  <path
     fill="#ffffff"
     d="m 419.36,410.15 q 1.16,0.78 2.32,1.29 0.54,0.24 0.53,0.83 -0.03,2.34 -0.96,4.31 -0.26,0.54 -0.85,0.62 l -5.15,0.69 q -0.96,0.13 -0.02,0.38 c 3.05,0.79 5.36,0.32 8.02,2.67 1.94,1.71 2.11,4.22 2.75,6.53 a 1.79,1.78 68.3 0 1 -0.88,2.05 q -6.65,3.54 -13.29,8.21 -1.39,0.97 0.3,1.13 6.32,0.6 12.85,0.32 0.61,-0.03 0.49,0.56 l -0.38,2.04 q -0.16,0.84 0.69,0.76 l 2.27,-0.2 q 1.06,-0.09 0.2,0.53 l -2.19,1.56 q -0.37,0.26 -0.4,0.73 l -0.25,4.89 q -0.02,0.43 -0.44,0.46 -4.62,0.37 -8.88,-0.02 -2.32,-0.21 -4.77,0.14 -3.06,0.43 -6.04,0.46 c -2.23,0.03 -4.08,0.92 -6.38,0.68 a 2.07,2.09 6.6 0 1 -1.84,-2.34 l 0.99,-7.53 q 0.07,-0.55 -0.48,-0.57 -0.19,-0.01 -0.35,0.06 -0.97,0.43 -1.06,-0.63 -0.81,-9.76 -0.11,-17.81 0.3,-3.56 1.06,-0.07 0.28,1.35 0.35,2.66 0.01,0.11 0.09,0.17 0.15,0.1 0.28,0.06 0.16,-0.05 0.19,-0.22 c 0.51,-3.01 1.05,-6.24 2.05,-9.15 0.7,-2.02 -0.02,-3.95 0.11,-6 q 0.04,-0.73 -0.37,-0.13 -0.52,0.77 -0.17,1.56 c 0.41,0.93 -0.44,1.91 -1.12,2.42 q -0.49,0.35 -0.66,-0.22 -0.18,-0.6 -0.61,-1.04 a 1.68,1.68 0 0 1 0.01,-2.37 q 1.55,-1.56 2.84,-3.28 c 1.3,-1.75 3.57,-2.08 5.46,-2.79 q 0.69,-0.26 1.4,0.03 a 1.35,1.35 0 0 0 1.09,-0.02 q 1.83,-0.85 2.62,1.09 0.24,0.58 0.56,0.03 1.26,-2.19 4.34,-2.51 4.89,-0.51 8.68,-0.25 8.83,0.61 17.25,1.81 3.3,0.47 6.95,0.8 6.85,0.62 12.5,4.01 2.61,1.56 3.16,5.16 1,6.56 -3.23,10.58 -3.54,3.38 -8.55,5.01 a 0.49,0.5 61 0 0 -0.23,0.79 c 1.61,1.91 3.28,3.58 4.61,5.73 q 2.68,4.35 5.31,8.3 c 1.28,1.91 -0.18,5.11 -2.78,3.97 q -7.72,-3.4 -13.92,-9.26 -1.56,-1.48 -1.01,0.6 0.18,0.7 0.51,1.39 1.47,3.09 -1.05,4.75 c -2.48,1.63 -6.69,-0.38 -8.11,-2.4 -1.5,-2.16 -2.46,-5.18 -2.46,-7.87 0.02,-3.6 -0.16,-7.07 0.69,-10.61 q 1.57,-6.55 0.93,-13.38 -0.12,-1.29 -1.4,-1.47 l -2.16,-0.3 q -0.55,-0.07 -0.69,-0.61 -0.25,-0.96 -0.87,-1.63 -0.26,-0.28 -0.61,-0.2 -0.54,0.1 -0.49,0.65 l 0.11,1.23 q 0.05,0.62 -0.56,0.76 -4.3,1 -8.67,-0.81 -1.17,-0.49 -0.12,0.23 z m 2.59,12.52 0.43,-1.29 a 0.25,0.25 0 0 0 -0.15,-0.32 l -0.21,-0.07 a 3.51,0.84 18.6 0 0 -3.6,-0.32 l -0.05,0.17 a 3.51,0.84 18.6 0 0 3.05,1.92 l 0.21,0.07 a 0.25,0.25 0 0 0 0.32,-0.16 z"
     id="path4" />
  <path
     fill="#ffffff"
     d="m 368.68,431.12 q -2.61,2.84 -3.44,6.93 c -0.74,3.65 -1.08,9.66 -6.21,9.84 q -3.05,0.12 -4.95,-1.6 -2.02,-1.84 -2.63,-4.75 -0.65,-3.1 -0.96,-6.01 -1.57,-14.6 -2.32,-29.14 -0.12,-2.21 2.09,-2.4 1.24,-0.1 3,0.24 1.37,0.26 1.51,1.64 l 1.36,13.79 q 0.06,0.61 0.59,0.92 c 2.64,1.49 2.51,3.77 3.68,6.15 q 0.61,1.24 0.97,-0.09 1.49,-5.57 3.23,-10.32 c 1.14,-3.09 4.9,-5.16 7.99,-3.27 1.93,1.17 3.63,6.97 4.58,9.2 1,2.34 4.26,2.06 5.09,-0.12 q 1.86,-4.91 3.62,-9.59 0.19,-0.51 0.63,-0.83 0.86,-0.62 1.45,-1.49 0.29,-0.43 0.32,-0.95 0.04,-0.57 0.3,-1.05 0.3,-0.57 0.99,-0.76 0.72,-0.2 1.5,-0.41 0.98,-0.26 0.01,-0.56 -0.81,-0.26 -1.42,0.43 a 0.3,0.31 71.3 0 1 -0.53,-0.26 l 0.4,-1.93 q 0.12,-0.57 0.7,-0.57 2.77,0 5.24,-1.18 a 0.52,0.52 0 0 1 0.73,0.61 q -0.66,2.28 -1.16,4.61 c -0.51,2.31 -2.33,3.98 -3.1,6.3 q -1.38,4.14 -2.25,8.14 -0.88,4.05 -2.07,8.26 -1.96,6.95 -3.96,13.59 a 1.87,1.86 24.7 0 1 -2.79,1.03 q -1.27,-0.82 -2.5,0.68 a 2.82,2.82 0 0 1 -4.48,-0.17 c -0.51,-0.73 -1.04,-1.49 -1.3,-2.36 q -1.81,-6.19 -3.3,-12.4 -0.15,-0.65 -0.61,-0.15 z m 24.6364,-24.9774 a 0.77,0.56 44.8 0 0 -0.1518,-0.94 0.77,0.56 44.8 0 0 -0.941,-0.1452 0.77,0.56 44.8 0 0 0.1518,0.94 0.77,0.56 44.8 0 0 0.941,0.1452 z M 380.36,425.34 a 0.33,0.33 0 0 0 -0.29,-0.48 l -1.91,-0.02 a 0.33,0.33 0 0 0 -0.33,0.36 l 0.35,3.1 a 0.33,0.33 0 0 0 0.62,0.11 z"
     id="path5" />
  <path
     fill="#ffffff"
     d="m 120.82,421.86 q 0.41,0.21 0.86,0.34 0.53,0.16 0.46,0.71 c -0.88,6.49 -3.85,11.94 -7.65,17.29 q -3.35,4.72 -6.84,6.39 -5.46,2.61 -11.28,1.2 -7.7,-1.86 -11.87,-10.58 -0.53,-1.11 -1.75,-1.05 l -4.46,0.23 q -1.06,0.05 -0.56,1 3.25,6.12 8.6,11.32 0.41,0.39 0.23,0.93 -0.52,1.6 -0.19,3.26 a 0.31,0.32 4.2 0 1 -0.41,0.36 q -4.53,-1.63 -8.74,-3.76 c -2.17,-1.09 -3.97,-2.87 -5.69,-4.55 -2.13,-2.06 -2.48,-4.76 -3.26,-7.52 q -0.16,-0.56 -0.75,-0.56 -0.86,0 -1.44,0.69 -0.36,0.42 -0.9,0.39 -3.06,-0.2 -3.79,-3.1 -0.74,-2.92 -0.48,-5.37 0.05,-0.5 0.42,-0.84 2.05,-1.87 4.57,-2.22 8.18,-1.15 19.37,-1.73 0.36,-0.02 0.64,-0.25 0.16,-0.14 0.07,-0.33 -0.14,-0.32 0.03,-0.63 3,-5.2 6.91,-9.49 0.3,-0.33 0.25,-0.77 -0.19,-1.7 1.22,-2.96 c 3.17,-2.81 8.65,-7.49 13.08,-7.02 q 3.87,0.42 7.4,2.35 c 2.45,1.35 3.47,3.58 5.34,5.51 2.31,2.38 3.3,6.25 2.73,9.35 q -0.34,1.8 -2.06,1.25 -1,-0.31 -0.06,0.16 z m -23.56,0.95 c -1.24,4.74 -3.37,14.7 2.29,17.68 a 2.44,2.44 0 0 0 3.08,-0.66 c 1.77,-2.27 3.24,-5.34 4.42,-7.19 2.98,-4.69 11.16,-14.37 1.93,-18.18 -5,-2.06 -10.69,4.37 -11.72,8.35 z"
     id="path6" />
  <path
     fill="#ffffff"
     d="m 308.42,419.94 c 1.59,-2.94 3.25,-6.48 5.65,-8.27 q 1.63,-1.21 2.99,-2.73 3.19,-3.51 7.01,-4.91 c 5.08,-1.85 10.87,-0.21 14.37,4.1 1.74,2.16 4.01,2.89 4.23,6.03 q 0.34,4.76 -0.11,9.97 -0.38,4.3 -2.7,8.62 -3.35,6.23 -6.06,9.45 -1.82,2.16 -5.64,4.7 -2.23,1.49 -4.46,1.5 c -6.72,0.03 -12.13,-1.47 -15.84,-7.69 -1.41,-2.36 -1.2,-4.96 -2.05,-7.53 q -0.44,-1.34 -0.35,-3.03 0.28,-5.29 2.96,-10.21 z m 8.68,13.46 q 0.43,1.86 0.59,3.8 c 0.1,1.2 0.69,1.96 1.15,3.01 q 0.21,0.47 0.71,0.54 c 2.85,0.43 5.33,-2.25 6.53,-4.46 q 2.96,-5.45 5.83,-10.09 c 1.08,-1.76 2.39,-5.08 2,-7.25 -0.55,-3.03 -3.76,-5.72 -7.07,-4.63 -8.45,2.77 -11.61,11.07 -9.74,19.08 z"
     id="path7" />
  <path
     fill="#ffffff"
     d="m 157.68,429.54 q 0.74,-2.34 1.99,-4.52 c 1.85,-3.22 3.12,-6.71 4.51,-10.21 0.64,-1.59 0.54,-3.04 1.92,-4.29 q 0.37,-0.34 0.54,-0.82 0.78,-2.27 1.92,-4.38 1.04,-1.93 3.73,-1.24 0.72,0.18 0.78,0.93 0.23,2.94 -0.73,5.28 c -0.99,2.43 -0.84,5.24 -2.27,7.39 q -0.96,1.44 -1.37,3.39 -1.96,9.27 -4.44,17.97 -1.2,4.19 -3.36,6.97 -0.35,0.46 -0.93,0.48 l -5.43,0.24 a 2.87,2.87 0 0 1 -2.91,-2.17 l -3.08,-12.34 a 0.69,0.69 0 0 0 -0.83,-0.51 q -1.69,0.39 -2.22,2.05 -1.62,5.03 -2.68,11.11 -0.1,0.54 -0.6,0.76 -4.07,1.79 -8.66,0.88 a 1.14,1.16 80.5 0 1 -0.76,-0.53 q -0.89,-1.47 -1.31,-3.12 c -0.96,-3.73 -1.89,-7.52 -2.23,-11.41 q -0.99,-11.3 -2.55,-23.21 c -0.54,-4.05 3.03,-4.74 5.93,-3.49 a 0.92,0.93 7 0 1 0.54,0.7 c 0.36,2.28 1.67,3.98 1.55,6.38 -0.13,2.39 -0.25,7.47 1.77,9.04 q 0.45,0.34 0.6,0.88 0.93,3.3 0.95,6.26 0,0.78 0.42,0.12 2.26,-3.59 3.45,-7.26 c 1.04,-3.18 2.65,-5.86 4.67,-8.46 a 2.6,2.6 0 0 1 4.19,0.12 q 1.08,1.57 2.67,2.55 0.49,0.3 0.73,0.84 2.76,6.36 3.13,13.57 0.06,1.03 0.37,0.05 z m -8.0218,-17.1813 a 0.59,0.88 63.6 0 0 -1.0505,-0.1372 0.59,0.88 63.6 0 0 -0.5259,0.9198 0.59,0.88 63.6 0 0 1.0505,0.1372 0.59,0.88 63.6 0 0 0.5259,-0.9198 z M 133.92,418.12 q -0.71,-0.28 -1.13,-1.02 a 0.42,0.43 80.7 0 0 -0.32,-0.22 l -0.88,-0.09 q -0.84,-0.1 -0.35,0.59 1.28,1.79 3.32,1.09 0.43,-0.15 0.08,-0.45 -0.16,-0.14 -0.31,0.02 -0.18,0.17 -0.41,0.08 z m -1.1425,8.9801 a 0.7,0.87 53.3 0 0 -1.1158,-0.0413 0.7,0.87 53.3 0 0 -0.2792,1.0811 0.7,0.87 53.3 0 0 1.1158,0.0413 0.7,0.87 53.3 0 0 0.2792,-1.0811 z"
     id="path8" />
  <path
     fill="#ffffff"
     d="m 269.75,405.93 q -0.15,-0.16 -0.19,-0.37 -0.13,-0.81 0.68,-0.81 c 4.33,0.02 8.39,-0.54 12.75,0.01 q 3.71,0.47 7.63,0.56 c 4.98,0.11 11.66,2.11 14.73,6.48 2.06,2.92 0.66,8.29 -0.34,11.46 -1.75,5.59 -6.04,8.96 -11.64,10.46 q -4.36,1.17 -8.64,2.15 c -1.76,0.4 -2.56,1.84 -2.52,3.58 q 0.1,3.34 0.01,6.41 -0.01,0.22 -0.23,0.21 l -8.96,-0.27 q -0.27,0 -0.27,-0.27 -0.03,-8.78 0,-17.53 0.01,-1.25 0.32,-2.43 c 0.3,-1.15 0.02,-2.24 0.41,-3.41 q 1.6,-4.81 2.22,-10.02 a 0.99,0.98 89.1 0 0 -1.12,-1.09 q -2.59,0.37 -3.88,2.35 -0.51,0.79 -0.61,-0.15 l -0.58,-6.14 q -0.02,-0.16 0.13,-0.2 0.18,-0.05 0.24,-0.19 0.17,-0.44 -0.14,-0.79 z"
     id="path9" />
  <path
     fill="#ffffff"
     d="m 84.3,420.39 q -3.75,-1.45 -7.47,-0.01 -0.5,0.19 -0.76,0.65 -0.58,1 -1.62,1.06 a 0.61,0.63 80.3 0 1 -0.62,-0.43 q -1.45,-4.58 -5.66,-7.02 a 0.97,0.96 43.4 0 0 -0.98,0.02 q -4.66,2.88 -8.03,6.66 -2.75,3.08 -4.31,6.06 -1.63,3.12 -0.94,7.11 c 0.95,5.44 5.91,7.61 11.11,7.23 q 0.66,-0.04 0.67,0.62 0.09,4.59 -0.47,9.11 -0.07,0.54 -0.61,0.48 -11.59,-1.32 -18.14,-10.8 c -3.25,-4.7 -3.23,-10.52 -1.21,-15.57 q 3.44,-8.58 10.06,-14.22 2.44,-2.09 7.03,-4.17 8.5,-3.86 15.81,-0.18 c 3.32,1.67 6.77,2.92 10.25,4.27 q 1.25,0.49 1.69,1.12 0.86,1.26 -0.52,2.56 -0.3,0.28 -0.62,0.02 -0.84,-0.69 -0.83,-1.85 a 0.59,0.59 0 0 0 -0.91,-0.5 q -0.49,0.32 -0.32,0.92 0.37,1.28 -0.24,2.37 a 1.56,1.59 4.8 0 1 -0.8,0.69 c -0.85,0.32 -1.34,1.41 -0.64,2.13 q 0.57,0.6 0.99,-0.11 0.15,-0.26 0.45,-0.29 0.85,-0.08 0.23,0.51 -0.13,0.13 -0.34,0.03 a 0.3,0.3 0 0 0 -0.43,0.21 q -0.13,0.67 0.36,0.93 a 0.58,0.58 0 0 1 0.28,0.66 q -0.24,0.92 -0.9,1.66 -0.32,0.36 -0.71,0.08 l -1.04,-0.75 q -0.52,-0.38 0.17,-0.67 0.13,-0.06 0.19,-0.2 a 0.3,0.3 0 0 0 -0.17,-0.39 z"
     id="path10" />
  <path
     fill="#ffffff"
     d="m 174.17,422.16 q -0.39,-3.26 0.42,-6.47 0.23,-0.92 0.49,0 0.57,2.08 1.1,4.17 0.24,0.93 -0.48,0.31 -0.11,-0.1 -0.26,-0.13 -0.23,-0.04 -0.35,0.17 -0.13,0.22 -0.03,0.44 0.19,0.38 0.61,0.45 0.55,0.09 0.95,0.46 0.54,0.5 -0.19,0.52 z"
     id="path11" />
</svg>
