<?xml version="1.0" encoding="UTF-8" standalone="no"?>
<!DOCTYPE svg PUBLIC "-//W3C//DTD SVG 1.1//EN" "http://www.w3.org/Graphics/SVG/1.1/DTD/svg11.dtd">
<svg xmlns="http://www.w3.org/2000/svg" version="1.1" viewBox="0.00 0.00 505.00 494.00">
<path fill="#000000" d="
  M 254.37 58.21
  L 292.04 58.18
  A 0.37 0.37 0.0 0 1 292.37 58.72
  Q 287.48 67.91 283.01 78.34
  Q 281.83 81.07 280.37 83.33
  Q 278.70 85.91 277.76 88.34
  Q 275.34 94.60 272.32 100.30
  C 270.33 104.04 269.49 108.01 267.51 111.64
  Q 261.96 121.82 257.00 132.30
  C 255.80 134.84 254.26 136.83 253.52 139.70
  Q 253.37 140.28 253.31 139.68
  Q 253.02 137.13 253.00 134.77
  Q 252.76 112.55 252.81 92.12
  Q 252.81 91.65 252.35 91.66
  L 215.22 91.67
  Q 214.46 91.67 214.79 90.99
  Q 216.34 87.84 218.09 84.63
  Q 219.87 81.38 221.28 78.01
  Q 224.33 70.76 227.95 64.00
  C 229.01 62.01 229.46 59.82 230.54 57.77
  Q 233.79 51.63 236.53 45.04
  C 237.01 43.89 237.05 42.79 237.66 41.69
  Q 240.84 36.02 243.43 29.98
  C 246.37 23.13 249.64 16.83 252.90 10.31
  C 253.37 9.36 253.28 8.35 253.62 7.40
  Q 253.91 6.57 253.91 7.45
  L 253.77 57.62
  Q 253.77 58.21 254.37 58.21
  Z"
/>
<path fill="#000000" d="
  M 332.79 324.80
  Q 329.25 324.15 325.69 323.57
  C 323.48 323.21 321.49 322.17 319.24 321.96
  Q 317.96 321.85 316.72 321.41
  C 313.85 320.39 310.98 319.94 308.22 318.64
  Q 299.80 314.65 292.77 311.45
  Q 289.06 309.76 285.82 307.07
  Q 280.62 302.75 280.48 302.65
  Q 274.91 298.26 270.51 292.40
  Q 270.05 291.79 269.28 291.79
  Q 252.51 291.77 236.75 291.77
  C 235.47 291.77 234.51 292.59 234.07 293.75
  A 2.06 2.00 -8.6 0 1 233.37 294.67
  C 230.70 296.62 229.01 299.31 226.46 301.41
  C 222.45 304.72 219.10 308.19 214.23 310.75
  Q 208.35 313.84 202.80 316.10
  C 200.09 317.20 197.70 318.86 194.92 319.70
  Q 184.94 322.72 174.10 324.87
  Q 173.48 324.99 173.20 325.56
  Q 170.11 332.01 166.41 338.16
  Q 165.89 339.04 164.68 341.86
  Q 163.87 343.75 162.82 345.45
  Q 160.43 349.34 158.00 353.22
  Q 149.20 367.31 132.70 370.85
  Q 131.28 371.15 129.87 371.03
  Q 129.46 371.00 129.11 371.22
  Q 128.47 371.63 127.78 371.46
  Q 127.18 371.32 126.56 371.33
  Q 118.56 371.50 110.76 368.41
  Q 99.38 363.89 92.32 354.56
  C 90.46 352.09 89.55 349.22 87.56 346.78
  Q 86.37 345.33 85.62 343.48
  Q 81.43 333.20 79.51 322.92
  Q 78.04 315.05 78.12 303.77
  Q 78.33 273.02 78.15 246.08
  Q 78.09 237.28 79.55 230.01
  Q 81.71 219.26 85.87 209.37
  Q 87.05 206.56 88.72 204.07
  C 90.29 201.73 90.74 198.97 92.47 196.66
  Q 97.54 189.87 102.98 183.94
  Q 104.46 182.32 106.35 180.92
  Q 108.11 179.62 110.01 178.08
  Q 117.05 172.32 125.50 167.38
  Q 126.23 166.95 126.91 166.59
  Q 133.10 163.38 140.78 161.18
  C 143.72 160.34 146.89 159.19 149.69 158.73
  Q 159.96 157.03 169.53 157.04
  Q 253.79 157.11 338.33 157.00
  Q 343.43 156.99 349.40 157.67
  C 355.79 158.39 361.65 158.98 367.79 161.50
  Q 371.05 162.84 374.72 163.91
  Q 377.89 164.84 381.24 166.87
  Q 387.94 170.95 393.24 174.71
  Q 396.60 177.10 400.27 180.32
  Q 403.86 183.48 406.83 186.65
  Q 411.57 191.72 414.04 195.87
  C 417.14 201.09 420.42 206.43 422.63 212.10
  Q 425.74 220.13 427.52 228.70
  Q 428.91 235.40 428.86 244.24
  Q 428.67 279.22 428.85 309.14
  C 428.90 317.78 427.02 325.93 424.75 334.26
  Q 422.46 342.62 419.44 346.64
  C 416.81 350.14 415.23 354.43 412.30 357.41
  Q 400.15 369.77 383.33 371.44
  Q 381.23 371.65 379.23 371.36
  C 377.26 371.08 375.31 371.17 373.36 370.70
  Q 361.03 367.70 352.85 358.39
  Q 350.08 355.24 348.07 351.74
  C 346.32 348.71 344.06 346.22 342.57 343.01
  Q 339.82 337.11 336.48 331.33
  Q 334.89 328.58 333.68 325.53
  Q 333.44 324.92 332.79 324.80
  Z
  M 361.70 170.44
  Q 364.23 171.49 366.86 172.30
  C 370.29 173.36 372.61 175.12 375.63 176.68
  C 378.09 177.95 379.78 179.98 382.23 181.31
  C 385.96 183.33 388.97 186.70 391.88 189.75
  Q 393.49 191.44 394.83 193.66
  Q 395.95 195.50 397.78 197.69
  Q 401.53 202.15 404.79 210.09
  C 407.55 216.82 409.91 225.82 410.12 233.75
  Q 410.23 237.91 409.91 241.38
  Q 409.14 249.90 406.21 258.98
  C 400.50 276.68 385.55 291.38 369.01 299.04
  Q 363.78 301.46 356.39 302.82
  Q 349.39 304.11 343.76 304.61
  C 338.96 305.05 333.39 304.96 328.61 303.74
  Q 326.79 303.28 324.89 302.95
  Q 316.46 301.52 308.78 297.39
  Q 308.01 296.98 306.37 295.80
  Q 304.78 294.65 303.04 294.45
  Q 300.73 294.18 302.30 295.90
  Q 305.07 298.95 308.29 301.01
  Q 310.88 302.66 314.93 303.86
  Q 326.39 307.25 333.00 307.99
  Q 340.18 308.80 347.48 307.89
  Q 354.31 307.05 361.79 304.99
  C 372.18 302.12 381.35 296.68 389.42 289.71
  C 393.15 286.49 396.62 281.90 399.95 277.91
  Q 402.73 274.57 405.73 268.85
  C 408.04 264.43 409.53 259.39 411.11 254.60
  Q 415.94 239.97 412.89 224.33
  C 411.40 216.65 407.87 208.81 404.56 201.43
  C 402.80 197.51 399.86 195.21 397.56 191.93
  Q 393.06 185.49 388.29 181.96
  Q 384.20 178.94 379.40 175.39
  Q 376.42 173.18 373.42 171.84
  Q 370.59 170.57 367.96 169.17
  Q 362.76 166.40 357.28 165.34
  Q 351.72 164.27 342.91 163.60
  C 339.40 163.33 335.88 163.64 332.30 163.75
  Q 319.58 164.14 308.24 170.07
  Q 305.22 171.65 302.28 173.96
  Q 300.70 175.20 302.48 176.16
  L 303.13 176.51
  A 1.61 1.61 0.0 0 0 304.83 176.39
  Q 311.43 171.60 321.01 168.95
  Q 331.44 166.07 341.06 166.30
  C 342.97 166.34 344.75 166.73 346.69 166.78
  Q 348.60 166.83 350.78 167.36
  Q 353.65 168.06 356.52 168.73
  Q 358.90 169.28 361.70 170.44
  Z
  M 106.89 271.20
  Q 105.93 269.61 104.95 267.85
  Q 101.39 261.49 99.96 254.94
  Q 97.59 244.06 97.87 232.99
  C 98.33 215.19 105.53 200.08 118.36 186.98
  C 120.66 184.62 123.33 182.87 125.83 180.71
  Q 128.73 178.22 132.27 176.43
  Q 142.07 171.48 149.93 169.34
  Q 159.33 166.78 170.82 166.70
  Q 171.89 166.69 171.40 165.74
  L 170.75 164.47
  Q 170.37 163.73 169.53 163.73
  Q 158.76 163.74 148.14 166.22
  C 145.30 166.89 142.82 168.21 140.08 169.21
  Q 137.10 170.30 129.49 174.30
  Q 127.33 175.44 125.27 177.22
  C 121.97 180.05 118.35 182.25 115.26 185.35
  C 107.61 193.06 101.89 201.79 98.57 211.77
  C 97.30 215.57 95.79 219.36 95.16 223.35
  Q 94.73 226.01 94.37 228.43
  Q 93.77 232.47 93.83 236.13
  Q 93.95 243.89 96.01 253.29
  Q 96.92 257.42 98.63 261.39
  C 99.51 263.43 99.57 265.38 100.69 267.40
  Q 103.36 272.23 105.94 276.07
  C 109.70 281.68 115.35 287.83 121.24 292.48
  Q 125.50 295.85 129.33 298.23
  Q 136.42 302.63 145.41 304.82
  C 148.38 305.55 151.13 306.51 154.22 306.83
  C 156.05 307.02 157.54 307.91 159.45 308.03
  Q 164.83 308.39 169.99 308.72
  Q 170.82 308.77 170.82 307.93
  L 170.82 305.95
  Q 170.82 305.09 169.95 305.05
  Q 157.07 304.47 146.22 301.57
  Q 139.73 299.83 135.21 297.49
  Q 117.17 288.18 106.89 271.20
  Z
  M 359.2103 196.3206
  A 19.72 19.29 -1.8 0 0 338.8941 177.6595
  A 19.72 19.29 -1.8 0 0 319.7897 197.5594
  A 19.72 19.29 -1.8 0 0 340.1059 216.2205
  A 19.72 19.29 -1.8 0 0 359.2103 196.3206
  Z
  M 150.81 250.06
  A 0.48 0.48 0.0 0 1 151.29 250.54
  L 151.22 283.46
  A 0.48 0.48 0.0 0 0 151.70 283.94
  L 180.06 283.97
  A 0.48 0.48 0.0 0 0 180.54 283.49
  L 180.45 250.44
  A 0.48 0.48 0.0 0 1 180.93 249.96
  L 213.72 249.98
  A 0.48 0.48 0.0 0 0 214.20 249.50
  L 214.20 220.83
  A 0.48 0.48 0.0 0 0 213.72 220.35
  L 180.85 220.25
  A 0.48 0.48 0.0 0 1 180.37 219.77
  L 180.43 188.23
  A 0.48 0.48 0.0 0 0 179.95 187.75
  L 151.73 187.73
  A 0.48 0.48 0.0 0 0 151.25 188.21
  L 151.27 219.81
  A 0.48 0.48 0.0 0 1 150.79 220.29
  L 118.13 220.25
  A 0.48 0.48 0.0 0 0 117.65 220.73
  L 117.63 249.62
  A 0.48 0.48 0.0 0 0 118.11 250.10
  L 150.81 250.06
  Z
  M 306.3142 254.0716
  A 20.22 19.82 82.6 0 0 323.3649 231.4673
  A 20.22 19.82 82.6 0 0 301.1058 213.9684
  A 20.22 19.82 82.6 0 0 284.0551 236.5727
  A 20.22 19.82 82.6 0 0 306.3142 254.0716
  Z
  M 375.2704 254.2399
  A 20.18 19.74 89.8 0 0 394.9399 233.9911
  A 20.18 19.74 89.8 0 0 375.1296 213.8801
  A 20.18 19.74 89.8 0 0 355.4601 234.1289
  A 20.18 19.74 89.8 0 0 375.2704 254.2399
  Z
  M 358.98 271.96
  A 19.53 19.53 0.0 0 0 339.45 252.43
  A 19.53 19.53 0.0 0 0 319.92 271.96
  A 19.53 19.53 0.0 0 0 339.45 291.49
  A 19.53 19.53 0.0 0 0 358.98 271.96
  Z
  M 255.75 262.37
  C 255.11 259.30 254.04 256.48 253.23 253.49
  Q 252.75 251.76 252.30 253.50
  Q 249.35 264.74 244.09 276.44
  Q 242.94 279.01 241.24 281.38
  A 0.44 0.43 14.2 0 0 241.65 282.06
  Q 245.61 281.62 250.21 281.70
  C 251.97 281.73 253.36 281.33 255.24 281.53
  Q 259.57 281.98 263.71 282.22
  A 0.58 0.57 -17.1 0 0 264.20 281.30
  Q 261.26 277.37 259.73 273.02
  C 258.46 269.41 256.55 266.16 255.75 262.37
  Z"
/>
<path fill="#000000" d="
  M 196.00 419.32
  Q 197.97 419.59 200.05 420.17
  C 202.05 420.73 204.00 421.90 204.10 424.23
  Q 204.20 426.72 204.71 428.89
  Q 204.86 429.51 204.30 429.80
  C 202.34 430.84 200.33 431.20 198.48 432.42
  Q 194.32 435.18 190.23 437.71
  Q 188.93 438.51 190.45 438.62
  C 194.13 438.86 197.73 439.23 201.43 439.28
  Q 205.52 439.33 206.67 443.73
  Q 206.98 444.92 206.30 443.90
  Q 205.76 443.09 204.92 443.05
  Q 204.49 443.03 204.51 443.47
  L 204.83 449.74
  A 0.52 0.52 0.0 0 1 204.27 450.29
  C 202.14 450.11 200.00 450.51 197.92 450.39
  Q 193.58 450.13 188.90 450.54
  C 186.50 450.75 184.57 450.71 182.28 451.67
  Q 180.70 452.32 179.04 452.22
  A 2.29 2.29 0.0 0 1 176.87 449.89
  Q 176.92 446.41 175.96 443.23
  Q 174.99 440.02 174.70 436.62
  Q 174.17 430.50 173.76 424.43
  Q 173.71 423.64 174.12 422.97
  Q 174.38 422.52 174.22 422.03
  Q 173.88 421.02 174.28 420.01
  Q 174.50 419.46 174.34 418.90
  Q 173.90 417.23 174.43 415.67
  Q 174.62 415.10 174.87 415.64
  Q 176.27 418.70 176.11 421.78
  Q 176.08 422.29 175.59 422.18
  Q 175.46 422.16 175.33 422.20
  Q 175.20 422.24 175.20 422.39
  Q 175.19 423.13 175.92 423.19
  Q 178.03 423.34 180.01 424.01
  Q 180.45 424.15 180.61 423.72
  Q 180.79 423.22 180.74 422.69
  Q 180.69 422.17 180.23 421.92
  Q 180.00 421.80 179.75 421.83
  A 0.66 0.65 -2.3 0 1 179.01 421.16
  C 179.05 419.79 178.29 418.72 178.24 417.39
  Q 178.10 413.71 177.36 410.05
  C 177.22 409.32 177.23 408.46 177.51 407.75
  Q 177.77 407.11 177.07 407.11
  Q 175.64 407.12 174.57 408.00
  Q 174.01 408.46 174.16 407.75
  Q 174.34 406.90 175.20 406.66
  Q 181.30 404.91 187.14 404.52
  Q 190.77 404.28 194.49 403.53
  Q 204.35 401.55 212.35 404.13
  A 0.88 0.85 38.5 0 0 213.05 404.06
  Q 213.39 403.87 213.75 403.91
  Q 224.78 405.01 232.31 406.31
  Q 236.53 407.05 241.05 411.02
  Q 242.67 412.44 242.95 414.64
  Q 244.09 423.61 235.65 428.32
  Q 233.50 429.51 231.21 429.54
  Q 230.59 429.54 230.94 430.05
  Q 231.68 431.08 232.63 431.79
  Q 233.00 432.07 233.22 432.48
  Q 235.20 436.25 237.25 439.78
  Q 237.32 439.90 240.15 443.85
  Q 242.00 446.44 242.58 449.29
  Q 242.71 449.94 242.23 449.49
  L 240.69 448.08
  Q 240.33 447.74 239.83 447.73
  L 235.26 447.66
  Q 234.72 447.65 234.38 447.25
  Q 233.07 445.69 231.26 444.76
  C 229.58 443.90 228.09 442.17 227.37 440.43
  Q 226.31 437.87 225.71 440.57
  Q 225.45 441.76 225.01 442.93
  C 224.04 445.49 221.22 448.83 218.38 447.08
  Q 213.19 443.89 212.49 439.23
  C 211.75 434.26 211.93 429.60 213.04 424.59
  Q 213.89 420.77 214.22 416.84
  Q 214.70 411.11 209.55 409.27
  Q 209.02 409.08 208.55 409.40
  Q 206.96 410.48 204.95 411.20
  C 201.00 412.62 198.22 415.20 195.79 418.87
  Q 195.54 419.26 196.00 419.32
  Z"
/>
<path fill="#000000" d="
  M 420.33 410.73
  Q 420.82 411.16 421.50 411.32
  Q 422.22 411.49 422.22 412.23
  Q 422.22 414.37 421.37 416.47
  Q 421.11 417.12 420.41 417.22
  L 415.73 417.88
  Q 414.92 417.99 415.68 418.31
  C 417.10 418.90 418.61 418.59 420.05 419.08
  C 424.38 420.53 425.43 423.59 426.06 428.03
  Q 426.13 428.55 425.73 428.91
  Q 424.64 429.88 423.41 430.54
  Q 417.00 433.99 411.78 437.87
  Q 410.71 438.68 412.04 438.80
  Q 418.48 439.39 425.00 439.18
  Q 425.60 439.16 425.50 439.76
  L 425.14 441.80
  A 0.62 0.62 0.0 0 0 425.81 442.52
  L 428.07 442.28
  Q 428.78 442.20 428.30 442.73
  Q 427.43 443.69 426.29 444.26
  A 1.04 1.04 0.0 0 0 425.71 445.14
  L 425.43 449.97
  A 0.79 0.78 3.9 0 1 424.57 450.71
  Q 421.78 450.48 419.11 450.73
  Q 417.51 450.88 415.83 450.53
  Q 414.38 450.22 412.70 450.49
  Q 408.95 451.09 405.71 451.07
  Q 403.97 451.06 402.51 451.48
  Q 400.61 452.04 398.50 451.69
  Q 397.99 451.61 397.69 451.19
  Q 396.64 449.75 397.08 448.31
  C 397.69 446.34 397.73 443.86 398.04 441.78
  A 0.41 0.41 0.0 0 0 397.42 441.36
  Q 397.03 441.59 396.60 441.50
  Q 396.14 441.41 396.11 440.94
  Q 395.55 432.72 395.83 424.71
  Q 395.89 423.01 396.27 421.44
  Q 396.44 420.71 396.70 421.42
  Q 397.37 423.21 397.36 425.03
  Q 397.36 425.38 397.72 425.41
  L 397.98 425.43
  Q 398.04 425.44 398.05 425.38
  Q 398.74 420.64 399.79 417.34
  Q 400.49 415.14 400.28 412.84
  Q 400.22 412.19 399.81 412.70
  L 398.68 414.14
  Q 398.38 414.51 398.05 414.17
  Q 396.93 413.06 396.89 411.92
  C 396.84 410.28 399.18 408.65 400.12 407.31
  C 401.41 405.49 403.43 405.42 405.31 404.60
  Q 405.99 404.30 406.70 404.49
  Q 407.71 404.76 408.68 404.35
  Q 409.25 404.11 409.74 404.47
  Q 410.35 404.91 410.72 405.57
  A 0.32 0.32 0.0 0 0 411.27 405.58
  C 413.25 402.33 419.97 402.69 423.23 402.82
  Q 427.34 402.98 431.29 403.48
  Q 440.34 404.61 447.81 405.35
  Q 455.37 406.09 461.24 409.69
  Q 462.85 410.68 463.50 412.53
  C 466.76 421.76 460.28 427.57 452.40 430.34
  A 0.53 0.52 60.0 0 0 452.18 431.18
  C 453.64 432.89 455.25 434.39 456.43 436.33
  Q 459.15 440.78 462.06 445.06
  C 463.51 447.20 461.65 450.33 458.92 449.03
  Q 450.93 445.22 445.58 440.09
  Q 443.64 438.22 444.53 440.76
  C 445.31 443.00 446.07 445.19 443.84 446.53
  C 440.72 448.41 435.72 445.71 434.68 442.50
  C 434.17 440.95 433.28 439.59 433.24 437.89
  C 433.16 433.72 432.95 429.52 433.90 425.46
  Q 435.40 419.07 434.80 412.25
  Q 434.66 410.68 433.09 410.75
  Q 432.02 410.79 431.05 410.49
  Q 430.53 410.33 430.49 409.78
  Q 430.41 408.85 429.71 408.42
  Q 428.39 407.61 428.70 409.13
  Q 428.81 409.71 428.66 410.24
  A 0.83 0.81 2.7 0 1 428.01 410.82
  Q 423.87 411.52 420.52 410.40
  Q 419.65 410.11 420.33 410.73
  Z
  M 421.88 422.71
  L 422.35 421.32
  A 0.18 0.18 0.0 0 0 422.23 421.09
  L 421.92 420.99
  A 3.21 0.82 18.6 0 0 418.62 420.74
  L 418.56 420.91
  A 3.21 0.82 18.6 0 0 421.34 422.71
  L 421.65 422.82
  A 0.18 0.18 0.0 0 0 421.88 422.71
  Z"
/>
<path fill="#000000" d="
  M 368.54 431.21
  Q 365.74 434.78 365.01 439.21
  C 364.62 441.57 364.19 444.46 362.58 446.28
  Q 360.26 448.90 356.25 447.52
  Q 354.42 446.90 352.42 444.57
  Q 352.07 444.16 351.96 443.63
  C 351.33 440.57 350.61 437.56 350.31 434.47
  Q 348.89 420.23 348.14 406.34
  Q 348.02 404.18 350.18 404.00
  Q 351.75 403.87 353.36 404.20
  Q 354.65 404.47 354.79 405.78
  Q 355.47 412.49 356.11 419.30
  Q 356.21 420.46 357.26 420.94
  A 2.62 2.53 82.0 0 1 358.18 421.66
  C 359.52 423.35 359.49 425.02 360.43 426.75
  Q 361.04 427.88 361.36 426.64
  Q 362.73 421.25 364.49 416.50
  Q 365.76 413.07 369.22 412.38
  C 371.55 411.92 373.61 413.15 374.43 415.38
  Q 375.80 419.12 377.24 422.31
  A 2.69 2.68 43.3 0 0 382.20 422.17
  L 385.80 412.72
  Q 386.10 411.93 386.78 411.44
  Q 388.27 410.36 388.36 408.61
  A 0.97 0.96 85.3 0 1 389.11 407.72
  Q 390.14 407.48 390.85 406.74
  Q 391.22 406.37 390.70 406.43
  Q 390.22 406.48 389.84 406.89
  Q 389.14 407.63 389.19 406.62
  Q 389.24 405.73 389.48 404.76
  Q 389.63 404.18 390.22 404.14
  L 392.49 403.97
  Q 393.25 403.91 393.91 403.53
  Q 394.64 403.11 395.47 402.98
  Q 396.37 402.84 396.14 403.71
  Q 395.58 405.87 395.08 408.10
  Q 394.70 409.85 393.56 411.42
  C 391.82 413.80 391.33 416.75 390.47 419.45
  Q 389.72 421.81 389.38 424.13
  C 388.90 427.28 387.76 429.96 386.97 432.95
  Q 385.65 437.99 384.22 443.03
  Q 383.79 444.53 382.76 445.51
  Q 381.71 446.49 380.78 445.42
  Q 380.48 445.07 380.05 445.24
  Q 378.72 445.78 377.78 446.63
  A 2.54 2.54 0.0 0 1 373.94 446.13
  C 373.41 445.32 372.85 444.69 372.57 443.73
  Q 370.77 437.46 369.25 431.36
  Q 369.05 430.56 368.54 431.21
  Z
  M 393.33 406.06
  Q 393.38 405.42 392.97 404.93
  Q 392.82 404.76 392.67 404.92
  Q 392.54 405.07 392.37 405.16
  Q 391.72 405.49 392.31 405.92
  L 392.83 406.30
  Q 393.29 406.63 393.33 406.06
  Z
  M 380.30 425.29
  A 0.31 0.31 0.0 0 0 380.01 424.85
  L 378.18 424.90
  A 0.31 0.31 0.0 0 0 377.88 425.25
  L 378.24 428.27
  A 0.31 0.31 0.0 0 0 378.83 428.37
  L 380.30 425.29
  Z"
/>
<path fill="#000000" d="
  M 93.33 413.30
  Q 93.00 413.25 93.02 412.92
  Q 93.13 411.47 94.06 410.59
  C 97.25 407.57 103.00 402.66 107.80 403.25
  Q 111.88 403.76 115.56 405.97
  C 117.47 407.12 118.40 409.20 119.94 410.75
  C 122.05 412.85 124.04 417.64 122.86 420.56
  Q 122.37 421.75 122.19 422.97
  C 121.23 429.40 118.37 434.92 114.12 440.73
  C 109.77 446.68 104.83 448.95 97.54 448.09
  C 92.93 447.55 88.25 443.83 85.99 440.01
  Q 85.13 438.56 84.34 437.02
  Q 83.94 436.24 83.07 436.21
  Q 80.44 436.11 78.34 436.47
  Q 77.37 436.63 77.84 437.50
  Q 81.37 444.00 86.32 448.60
  Q 86.75 449.00 86.57 449.56
  Q 86.08 451.06 86.42 452.61
  Q 86.56 453.25 85.92 453.09
  Q 78.04 451.08 72.22 445.76
  C 69.81 443.55 68.92 440.94 68.39 437.74
  A 1.04 1.03 -13.8 0 0 67.05 436.93
  Q 66.52 437.10 66.15 437.54
  Q 65.76 438.00 65.16 437.97
  Q 62.09 437.80 61.37 434.89
  Q 60.70 432.20 60.83 429.78
  A 2.08 2.06 -15.2 0 1 61.78 428.14
  C 63.26 427.19 64.82 426.43 66.61 426.23
  Q 76.41 425.11 85.50 424.63
  Q 86.23 424.59 85.95 423.93
  Q 85.75 423.45 86.10 423.07
  Q 86.80 422.33 87.34 421.11
  Q 88.12 419.34 93.39 413.47
  A 0.10 0.10 0.0 0 0 93.33 413.30
  Z
  M 96.88 424.32
  C 96.08 429.65 94.63 434.00 97.69 438.82
  C 99.23 441.23 102.58 441.54 103.52 438.40
  Q 103.65 437.96 104.01 437.67
  C 104.97 436.89 105.23 435.49 105.88 434.44
  Q 108.30 430.54 110.79 426.82
  C 113.23 423.16 114.95 417.92 110.20 415.04
  C 107.73 413.54 105.06 414.14 102.76 415.62
  Q 97.69 418.90 96.88 424.32
  Z"
/>
<path fill="#000000" d="
  M 305.60 428.80
  Q 305.50 427.52 305.86 426.29
  Q 308.08 418.85 313.22 412.28
  C 313.95 411.34 315.03 411.26 315.74 410.36
  C 320.86 403.89 328.76 400.56 336.10 405.88
  Q 337.49 406.89 338.45 408.12
  C 340.73 411.04 342.66 410.94 342.82 415.38
  Q 342.98 419.73 342.59 424.14
  Q 342.22 428.33 340.04 432.45
  Q 336.75 438.67 333.90 442.12
  Q 332.16 444.23 328.46 446.75
  Q 326.07 448.38 323.82 448.41
  Q 319.92 448.46 316.53 447.62
  C 312.18 446.55 307.19 442.06 306.60 437.14
  Q 306.27 434.46 305.46 432.10
  C 305.05 430.90 305.70 429.99 305.60 428.80
  Z
  M 327.13 414.30
  Q 321.50 415.93 319.03 420.23
  Q 316.45 424.70 316.65 429.99
  C 316.74 432.51 317.62 434.82 317.75 437.33
  C 317.80 438.16 318.20 438.75 318.49 439.48
  A 2.29 2.29 0.0 0 0 321.82 440.56
  Q 324.82 438.70 326.53 435.49
  Q 329.17 430.55 332.18 425.70
  C 332.81 424.69 332.96 423.50 333.47 422.44
  C 335.38 418.53 331.66 412.99 327.13 414.30
  Z"
/>
<path fill="#000000" d="
  M 157.80 428.73
  Q 162.35 420.32 164.77 412.83
  Q 165.23 411.40 166.20 410.30
  A 2.26 2.20 75.7 0 0 166.68 409.47
  Q 167.53 406.83 169.15 404.56
  Q 169.55 403.99 170.25 403.92
  Q 171.54 403.80 172.55 404.18
  Q 173.09 404.38 173.13 404.96
  Q 173.32 407.92 172.32 410.39
  C 171.39 412.66 171.55 415.54 170.20 417.49
  Q 169.16 418.99 168.87 420.45
  Q 167.82 425.76 166.52 430.82
  Q 165.43 435.05 164.21 439.21
  Q 163.06 443.12 160.95 446.00
  Q 160.62 446.46 160.06 446.52
  Q 157.21 446.82 154.56 446.71
  Q 152.30 446.61 151.63 444.31
  Q 149.96 438.59 148.64 432.41
  A 0.89 0.88 -17.2 0 0 147.44 431.78
  Q 145.90 432.40 145.41 434.02
  Q 143.89 439.12 142.82 444.88
  Q 142.72 445.41 142.22 445.64
  Q 138.18 447.43 133.58 446.53
  A 1.22 1.21 78.9 0 1 132.80 446.00
  Q 131.95 444.71 131.56 443.24
  Q 130.27 438.30 129.28 433.01
  C 128.95 431.19 129.19 429.41 128.99 427.64
  Q 128.00 418.58 126.70 408.69
  C 126.23 405.10 128.15 403.46 132.04 404.47
  A 1.64 1.63 -0.9 0 1 133.21 405.60
  C 133.89 407.98 134.95 410.04 134.77 412.63
  Q 134.56 415.90 135.44 419.63
  A 0.83 0.81 -76.2 0 0 135.69 420.05
  L 136.49 420.74
  Q 136.89 421.09 137.05 421.60
  Q 138.00 424.70 138.11 427.56
  Q 138.16 428.67 138.71 427.71
  Q 140.94 423.88 142.11 420.32
  C 143.07 417.40 144.69 414.81 146.57 412.39
  A 2.61 2.61 0.0 0 1 150.81 412.54
  Q 151.87 414.14 153.51 415.07
  A 1.79 1.78 -86.0 0 1 154.28 415.96
  Q 156.74 422.10 157.38 428.64
  Q 157.45 429.38 157.80 428.73
  Z
  M 149.7561 412.6050
  A 0.92 0.54 -5.3 0 0 148.7901 412.1523
  A 0.92 0.54 -5.3 0 0 147.9239 412.7750
  A 0.92 0.54 -5.3 0 0 148.8899 413.2277
  A 0.92 0.54 -5.3 0 0 149.7561 412.6050
  Z
  M 133.54 417.81
  Q 132.74 417.60 132.25 417.00
  Q 132.08 416.79 131.81 416.79
  Q 131.61 416.79 131.51 416.93
  Q 131.29 417.25 131.51 417.58
  Q 132.53 419.12 134.35 418.35
  Q 134.83 418.15 134.39 417.86
  Q 134.12 417.68 133.86 417.79
  Q 133.70 417.85 133.54 417.81
  Z
  M 131.4799 428.4231
  A 0.85 0.53 120.4 0 0 132.3671 427.9582
  A 0.85 0.53 120.4 0 0 132.3401 426.9569
  A 0.85 0.53 120.4 0 0 131.4529 427.4218
  A 0.85 0.53 120.4 0 0 131.4799 428.4231
  Z"
/>
<path fill="#000000" d="
  M 275.19 411.23
  Q 272.56 410.89 270.72 413.37
  Q 270.14 414.15 270.05 413.18
  L 269.55 407.70
  Q 269.51 407.25 269.73 406.85
  Q 270.08 406.23 269.56 405.62
  A 0.52 0.52 0.0 0 1 269.95 404.76
  Q 273.49 404.74 277.14 404.48
  C 280.92 404.21 284.75 405.14 288.59 405.17
  C 294.26 405.21 302.54 406.88 305.60 412.17
  C 307.44 415.36 305.77 422.47 304.05 425.72
  C 301.41 430.69 297.44 432.53 292.37 434.07
  C 289.68 434.89 286.99 435.11 284.28 436.10
  Q 282.47 436.76 282.34 438.52
  Q 282.11 441.46 282.34 444.90
  Q 282.43 446.10 281.23 446.07
  L 273.76 445.87
  Q 272.73 445.84 272.73 444.81
  Q 272.74 436.77 272.76 428.72
  Q 272.77 427.19 273.02 425.90
  C 273.27 424.59 273.08 423.31 273.49 422.06
  Q 275.13 417.09 275.69 411.86
  A 0.57 0.57 0.0 0 0 275.19 411.23
  Z"
/>
<path fill="#000000" d="
  M 87.10 413.08
  Q 86.86 413.59 86.99 414.12
  Q 87.24 415.08 86.67 415.88
  Q 86.24 416.47 85.59 416.82
  A 1.20 1.20 0.0 0 0 85.37 418.80
  Q 86.41 419.68 86.65 420.29
  A 1.56 1.56 0.0 0 1 84.79 422.37
  Q 83.89 422.13 84.05 420.86
  Q 84.13 420.27 83.56 420.10
  Q 80.62 419.23 76.99 420.25
  Q 76.60 420.36 76.43 420.72
  Q 75.89 421.90 74.50 422.08
  A 0.67 0.67 0.0 0 1 73.78 421.62
  Q 72.41 417.31 68.52 414.88
  Q 67.65 414.34 66.79 414.89
  Q 61.00 418.63 56.63 424.49
  C 52.47 430.08 52.24 438.10 59.50 441.05
  Q 61.44 441.84 65.10 441.75
  Q 65.93 441.73 65.87 442.55
  L 65.29 451.43
  Q 65.24 452.08 64.61 451.99
  Q 52.31 450.44 45.95 440.34
  Q 44.33 437.78 43.99 434.86
  Q 43.50 430.59 44.54 427.56
  Q 47.82 418.01 54.52 412.01
  Q 59.28 407.74 66.42 405.73
  Q 72.13 404.12 77.89 406.84
  C 81.41 408.50 84.96 410.03 88.68 411.28
  C 90.37 411.86 91.09 413.58 89.63 414.97
  A 0.47 0.47 0.0 0 1 89.02 415.01
  Q 88.15 414.36 88.00 413.22
  Q 87.80 411.61 87.10 413.08
  Z"
/>
</svg>
